<?xml version="1.0" encoding="UTF-8" standalone="no"?>
<!DOCTYPE svg PUBLIC "-//W3C//DTD SVG 1.1//EN" "http://www.w3.org/Graphics/SVG/1.1/DTD/svg11.dtd">
<svg width="100%" height="100%" viewBox="0 0 484 406" version="1.1" xmlns="http://www.w3.org/2000/svg" xmlns:xlink="http://www.w3.org/1999/xlink" xml:space="preserve" xmlns:serif="http://www.serif.com/" style="fill-rule:evenodd;clip-rule:evenodd;stroke-linecap:round;stroke-linejoin:round;stroke-miterlimit:1.5;">
    <g id="Artboard1" transform="matrix(0.833977,0,0,0.804444,-216.831,-176.092)">
        <g transform="matrix(1.19907,0,0,1.24309,-117.654,-96.609)">
            <path d="M497.347,465.517C497.347,465.517 497.347,555.756 424.297,540C351.247,524.244 326.897,432.573 361.273,388.17C395.65,343.767 504.509,243.501 620.531,295.066C736.552,346.631 707.905,342.334 749.443,398.196C790.981,454.058 773.793,469.814 735.119,481.273C696.446,492.732 730.822,499.894 740.849,518.515C750.875,537.135 772.361,547.162 679.257,568.647C586.154,590.133 596.513,574.377 628.025,608.753C659.537,643.13 601.91,656.021 576.127,613.05C550.345,570.08 480.995,528.358 480.995,528.358" style="fill:none;stroke:white;stroke-width:21.64px;"/>
        </g>
        <g transform="matrix(1.19907,0,0,1.24309,-121.089,-47.6436)">
            <path d="M445.782,337.679C445.782,337.679 401.379,371.252 422.865,421.385" style="fill:none;stroke:white;stroke-width:21.64px;"/>
        </g>
        <g transform="matrix(1.19907,0,0,1.24309,-117.654,-96.609)">
            <path d="M543.183,357.374C543.183,357.374 564.668,386.737 497.347,396.764" style="fill:none;stroke:white;stroke-width:21.64px;"/>
        </g>
        <g transform="matrix(1.19907,0,0,1.24309,-117.654,-96.609)">
            <path d="M533.564,386.008C533.564,386.008 566.101,412.52 591.883,396.764" style="fill:none;stroke:white;stroke-width:21.64px;"/>
        </g>
        <g transform="matrix(1.19907,0,0,1.24309,-117.654,-96.609)">
            <path d="M645.7,306.425C645.7,306.425 607.639,306.525 610.504,345.199" style="fill:none;stroke:white;stroke-width:21.64px;"/>
        </g>
        <g transform="matrix(1.19907,0,0,1.24309,-117.654,-96.609)">
            <path d="M734.977,377.069C734.977,377.069 706.472,425.411 680.69,419.682" style="fill:none;stroke:white;stroke-width:21.64px;"/>
        </g>
        <g transform="matrix(1.19907,0,0,1.24309,-117.654,-96.609)">
            <path d="M645.7,482.706C645.7,482.706 657.772,472.679 680.69,492.732" style="fill:none;stroke:white;stroke-width:21.64px;"/>
        </g>
        <g transform="matrix(1.19907,0,0,1.24309,-117.654,-96.609)">
            <path d="M591.883,445.464C591.883,445.464 632.397,495.597 562.723,492.732" style="fill:none;stroke:white;stroke-width:21.64px;"/>
        </g>
        <g transform="matrix(1.19907,0,0,1.24309,-117.654,-96.609)">
            <path d="M533.564,521.379C533.564,521.379 540.984,449.761 628.025,540" style="fill:none;stroke:white;stroke-width:21.64px;"/>
        </g>
    </g>
</svg>
