<?xml version="1.0" encoding="UTF-8" standalone="no"?>
<!DOCTYPE svg PUBLIC "-//W3C//DTD SVG 1.1//EN" "http://www.w3.org/Graphics/SVG/1.1/DTD/svg11.dtd">
<svg width="100%" height="100%" viewBox="0 0 534 466" version="1.1" xmlns="http://www.w3.org/2000/svg" xmlns:xlink="http://www.w3.org/1999/xlink" xml:space="preserve" xmlns:serif="http://www.serif.com/" style="fill-rule:evenodd;clip-rule:evenodd;stroke-linejoin:round;stroke-miterlimit:2;">
    <g id="Artboard1" transform="matrix(0.856322,0,0,0.896552,-495.444,-251.722)">
        <g transform="matrix(1.16779,0,0,1.11538,-200.951,-91.4519)">
            <path d="M829.337,339.677C830.223,339.642 830.983,340.318 831.047,341.208C831.051,341.274 831.052,341.339 831.049,341.403C833.817,342.121 835.269,343.062 836.65,344.177C838.167,345.402 839.566,346.91 843.046,348.65C846.479,350.367 849.022,354.372 850.142,359.217C851.757,366.205 850.429,374.847 845.235,380.041C840.835,384.441 836.406,386.193 832.316,386.451C826.221,386.836 820.82,383.838 817.25,380.944C814.616,378.809 812.982,376.713 812.671,376.092C809.747,370.243 806.909,366.487 805.419,363.277C804.248,360.752 803.838,358.506 804.527,356.011C805.204,353.56 807.033,350.799 810.633,347.199C819.37,338.463 825.469,339.036 828.285,339.5C828.719,339.572 829.277,339.667 829.337,339.677ZM826.581,342.615C825.7,342.556 824.611,342.591 823.327,342.897C820.652,343.534 817.191,345.309 812.967,349.533C809.474,353.025 807.813,355.452 807.535,357.759C807.266,359.993 808.343,362.007 809.909,364.654C811.461,367.278 813.519,370.41 815.623,374.616C815.869,375.108 817.243,376.69 819.328,378.381C822.365,380.842 826.924,383.485 832.108,383.158C835.537,382.942 839.213,381.396 842.902,377.708C847.32,373.289 848.301,365.904 846.926,359.96C846.053,356.182 844.248,352.941 841.57,351.602C838.491,350.062 836.878,348.697 835.497,347.518C833.729,346.007 832.4,344.867 827.956,344.127C827.189,343.999 826.633,343.359 826.581,342.615Z"/>
        </g>
        <g transform="matrix(1.16779,0,0,1.11538,-200.951,-91.4519)">
            <path d="M997.257,342.024C997.444,342.031 997.63,342.069 997.807,342.14C998.019,342.198 1001.8,343.249 1004.39,344.544C1005.44,345.071 1011.94,348.355 1015.1,354.669C1019.21,362.89 1020.82,367.992 1021.03,372.019C1021.2,375.179 1020.54,377.719 1019.45,380.55C1018.46,383.137 1017.1,385.993 1015.77,389.957C1015.08,392.032 1013.31,393.839 1013.03,394.122C998.52,408.631 980.556,404.477 969.999,398.476C965.302,395.807 962.086,392.721 961.105,390.759C958.286,385.121 957.245,384.281 956.851,383.836L956.475,383.298L956.286,382.795C952.877,369.157 954.505,359.66 958.58,353.173C963.402,345.499 971.716,341.933 979.772,340.8C986.6,339.84 993.211,340.642 997.257,342.024ZM998.749,345.865C998.386,345.951 997.991,345.915 997.631,345.735C994.37,344.105 987.429,343.056 980.232,344.068C973.088,345.072 965.65,348.123 961.375,354.928C957.677,360.814 956.391,369.428 959.428,381.752C959.835,382.172 961.403,383.977 964.056,389.284C964.878,390.927 967.695,393.371 971.63,395.607C981.211,401.054 997.528,404.957 1010.7,391.788C1010.89,391.592 1012.16,390.358 1012.64,388.913C1013.99,384.892 1015.36,381.994 1016.37,379.368C1017.28,376.985 1017.88,374.854 1017.74,372.194C1017.54,368.461 1015.96,363.764 1012.15,356.144C1009.44,350.724 1003.82,347.948 1002.91,347.495C1001.52,346.801 999.959,346.248 998.749,345.865Z"/>
        </g>
        <g transform="matrix(1.16779,0,0,1.11538,-200.951,-91.4519)">
            <path d="M1139.89,362.076C1139.85,361.76 1139.89,361.429 1140.05,361.122C1140.45,360.308 1141.45,359.977 1142.26,360.384C1142.85,360.681 1143.16,360.838 1143.28,360.901C1143.29,360.902 1143.29,360.904 1143.3,360.905L1143.94,360.752L1144.86,360.846C1148.95,361.87 1148.92,361.188 1152.99,362.002C1162.96,363.995 1168.57,373.295 1170.02,381.846C1171.02,387.762 1169.95,393.258 1167.33,395.882C1160.85,402.358 1153.91,404.746 1147.65,404.462C1138.13,404.031 1130.1,397.401 1127.27,389.042C1124.29,380.251 1126.93,369.452 1139.89,362.076ZM1142.91,364.191C1130.62,370.559 1127.73,380.113 1130.39,387.984C1132.81,395.125 1139.67,400.797 1147.8,401.165C1153.29,401.414 1159.32,399.222 1165,393.548C1165.75,392.791 1166.28,391.683 1166.63,390.371C1167.22,388.126 1167.26,385.319 1166.77,382.398C1165.52,375.068 1160.89,366.947 1152.35,365.238C1148.23,364.415 1148.23,365.081 1144.16,364.072C1144.03,364.113 1143.87,364.162 1143.75,364.183L1143.26,364.219C1143.16,364.217 1143.04,364.209 1142.91,364.191ZM1144.23,364.047C1144.3,364.033 1144.34,364.009 1144.34,364.009C1144.34,364.009 1144.3,364.025 1144.23,364.047Z"/>
        </g>
        <g transform="matrix(1.16779,0,0,1.11538,-200.951,-91.4519)">
            <path d="M773.933,360.819C773.934,360.819 773.935,360.819 773.936,360.819C773.979,360.826 774.022,360.835 774.065,360.846C774.066,360.846 774.067,360.847 774.068,360.847C774.897,361.054 780.779,362.527 784.78,363.935C786.79,364.642 788.355,365.416 788.912,365.974C795.975,373.036 799.479,376.99 800.879,381.605C802.275,386.207 801.585,391.53 799.934,401.44C797.195,417.869 780.592,423.452 766.055,421.941C756.277,420.924 747.58,416.639 744.614,410.707C734.338,390.154 743.762,372.466 756.554,364.735C762.135,361.362 768.367,359.892 773.933,360.819ZM773.33,364.064C768.495,363.278 763.105,364.632 758.261,367.56C746.674,374.562 738.258,390.614 747.566,409.231C750.146,414.392 757.89,417.774 766.396,418.658C779.284,419.999 794.251,415.463 796.679,400.897C798.206,391.733 799.012,386.818 797.721,382.563C796.435,378.321 793.07,374.798 786.579,368.307C786.197,367.925 785.061,367.532 783.684,367.047C779.882,365.71 774.333,364.315 773.33,364.064Z"/>
        </g>
        <g transform="matrix(1.16779,0,0,1.11538,-200.951,-91.4519)">
            <path d="M925.21,380.754C925.285,380.498 925.424,380.256 925.626,380.054C926.269,379.41 927.315,379.41 927.959,380.054C928.582,380.677 929.45,380.919 930.438,381.109C931.765,381.364 933.287,381.473 934.902,381.73C937.606,382.16 940.534,382.979 943.318,385.241C946.02,387.436 948.618,391.025 950.652,397.127C953.177,404.701 952.395,410.603 949.82,414.952C945.963,421.467 937.924,424.583 930.113,424.482C921.3,424.367 912.963,420.126 911.111,412.716C907.731,399.197 909.494,391.669 912.75,387.321C916.109,382.835 921.172,381.562 924.674,380.784C924.855,380.744 925.035,380.735 925.21,380.754ZM926.519,383.11C926.307,383.549 925.903,383.891 925.39,384.005C922.476,384.653 918.186,385.567 915.392,389.299C912.494,393.168 911.305,399.887 914.312,411.916C915.834,418.001 922.918,421.088 930.156,421.182C936.79,421.268 943.704,418.804 946.98,413.271C949.161,409.588 949.659,404.584 947.521,398.17C945.473,392.025 942.878,388.757 940.118,386.993C937.371,385.238 934.512,384.98 932.075,384.682C929.874,384.412 927.964,384.054 926.519,383.11Z"/>
        </g>
        <g transform="matrix(1.16779,0,0,1.11538,-200.951,-91.4519)">
            <path d="M1058.35,410.255C1058.31,410.034 1058.31,409.801 1058.37,409.569C1061.71,396.208 1061.97,396.247 1071.71,386.508C1076.65,381.573 1085.17,381.394 1092.64,382.797C1098.37,383.875 1103.44,385.807 1105.52,386.82C1106.28,387.189 1106.74,387.518 1106.9,387.681C1117.28,398.061 1120.14,406.096 1120.48,411.626C1120.79,416.601 1118.67,420.612 1118.49,420.945C1116.84,430.617 1112,436.91 1105.77,440.476C1096.5,445.791 1084,444.99 1074.07,439.962C1062.93,434.319 1055.1,423.448 1058.35,410.255ZM1061.6,410.271C1061.64,410.492 1061.63,410.724 1061.57,410.956C1058.67,422.579 1065.76,432.051 1075.56,437.018C1084.51,441.55 1095.77,442.403 1104.13,437.613C1109.64,434.461 1113.82,428.836 1115.25,420.258C1115.29,420.068 1115.42,419.696 1115.67,419.18C1116.21,418.093 1117.42,415.636 1117.19,411.828C1116.88,406.78 1114.09,399.556 1104.64,390.092C1104.51,390.021 1103.87,389.678 1103.25,389.412C1100.96,388.415 1096.74,386.925 1092.03,386.041C1085.63,384.838 1078.27,384.615 1074.05,388.841C1064.97,397.913 1064.69,397.892 1061.6,410.271Z"/>
        </g>
        <g transform="matrix(1.16779,0,0,1.11538,-200.951,-91.4519)">
            <path d="M1018.58,423.567C1018.21,422.762 1018.54,421.8 1019.34,421.401C1021.72,420.209 1022.96,419.67 1024.22,419.584C1025.48,419.498 1026.81,419.861 1029.4,420.724C1032.19,421.654 1035.43,421.758 1038.56,422.18C1042.13,422.661 1045.55,423.542 1048.22,425.957C1051.69,429.083 1054.05,434.91 1053.41,446.436C1053.07,452.571 1050.98,456.706 1048.03,459.413C1043.64,463.433 1037.21,464.315 1031.21,463.607C1024.62,462.828 1018.62,460.129 1016.56,458.071C1010.64,452.153 1009.98,444.111 1011.72,436.964C1013.05,431.469 1015.83,426.547 1018.58,423.567ZM1023.47,423.091C1023.41,423.546 1023.16,423.975 1022.75,424.249C1019.83,426.196 1016.42,431.602 1014.92,437.745C1013.44,443.826 1013.86,450.702 1018.9,455.738C1020.67,457.513 1025.91,459.658 1031.6,460.329C1036.65,460.926 1042.1,460.365 1045.8,456.981C1048.23,454.752 1049.83,451.303 1050.11,446.253C1050.53,438.641 1049.66,433.815 1047.86,430.722C1045.92,427.378 1042.89,426.269 1039.65,425.688C1035.87,425.009 1031.79,425 1028.36,423.855C1026.38,423.198 1025.4,422.811 1024.44,422.876C1024.13,422.898 1023.81,422.97 1023.47,423.091Z"/>
        </g>
        <g transform="matrix(1.16779,0,0,1.11538,-200.951,-91.4519)">
            <path d="M873.29,463.46C873.277,463.675 873.221,463.891 873.119,464.096C872.711,464.911 871.72,465.241 870.905,464.834C868.31,463.537 865.633,463.448 862.866,462.994C855.712,461.821 847.688,458.901 838.983,432.785C835.803,423.247 840.875,414.547 849.406,408.731C856.8,403.691 866.767,400.851 875.708,401.533C881.838,402 887.485,404.116 891.584,408.216C891.753,408.384 896.109,415.087 896.277,415.256C897.794,416.773 899.743,420.964 900.514,426.411C901.552,433.754 900.544,443.385 893.85,451.355C889.619,456.394 883.096,460.793 873.29,463.46ZM870.421,461.077C870.633,460.843 870.914,460.666 871.243,460.584C880.895,458.171 887.272,454.057 891.323,449.233C897.32,442.093 898.176,433.452 897.246,426.873C896.61,422.375 895.197,418.842 893.944,417.589C893.775,417.421 889.419,410.718 889.25,410.549C885.696,406.995 880.772,405.228 875.457,404.823C867.232,404.196 858.067,406.821 851.265,411.458C844.023,416.394 839.414,423.645 842.113,431.742C847.615,448.247 852.561,454.876 857.342,457.708C860.438,459.543 863.413,459.732 866.275,460.159C867.678,460.368 869.058,460.625 870.421,461.077Z"/>
        </g>
        <g transform="matrix(1.16779,0,0,1.11538,-200.951,-91.4519)">
            <path d="M699.882,403.828C699.815,403.483 699.857,403.115 700.026,402.778C700.638,401.552 702.26,400.377 704.606,399.66C709.129,398.276 716.471,398.301 721.6,400.866C737.011,408.572 738.542,426.145 730.874,435.682C725.73,442.08 716.442,445.099 704.284,439.02C702.631,438.193 701.847,437.447 701.224,436.73C700.563,435.968 700.19,435.212 698.417,434.326C692.241,431.238 690.608,423.903 692.017,416.942C692.831,412.925 694.639,409.071 697.011,406.358C697.895,405.346 698.86,404.491 699.882,403.828ZM704.613,403.155C704.726,403.316 704.812,403.5 704.862,403.702C705.083,404.585 704.545,405.482 703.662,405.703C702.127,406.087 700.722,407.126 699.495,408.53C697.466,410.851 695.947,414.161 695.252,417.597C694.146,423.06 695.046,428.951 699.893,431.374C701.558,432.207 702.35,432.956 702.974,433.674C703.638,434.438 704.004,435.19 705.76,436.068C716.047,441.212 723.949,439.027 728.302,433.614C734.878,425.435 733.34,410.426 720.124,403.818C716.351,401.931 711.178,401.684 707.333,402.392C706.31,402.581 705.384,402.836 704.613,403.155Z"/>
        </g>
        <g transform="matrix(1.16779,0,0,1.11538,-200.951,-91.4519)">
            <path d="M820.204,499.067C820.143,498.88 820.115,498.677 820.126,498.468C820.177,497.559 820.956,496.862 821.865,496.913C835.807,497.687 835.915,497.332 848.326,503.538C861.313,510.031 863.213,523.374 861.546,534.06C860.429,541.224 857.67,547.135 855.796,549.009C848.233,556.572 841.362,559.847 835.344,560.725C826.799,561.971 819.872,558.404 814.87,554.888C811.816,552.74 809.553,550.617 808.129,549.905C803.901,547.791 801.184,542.526 799.821,536.279C797.889,527.425 798.546,516.678 800.261,511.532C800.312,511.379 800.714,510.656 801.623,509.664C803.946,507.13 810.088,501.676 820.204,499.067ZM826.763,500.485C826.526,500.945 826.078,501.288 825.527,501.367C815.078,502.86 808.327,507.773 805.162,510.773C804.227,511.66 803.519,512.526 803.331,512.76C801.784,517.611 801.273,527.452 803.045,535.575C804.167,540.716 806.125,545.214 809.604,546.953C811.112,547.707 813.536,549.916 816.768,552.188C821.197,555.302 827.301,558.563 834.867,557.459C840.356,556.659 846.565,553.573 853.462,546.676C855.098,545.04 857.31,539.805 858.286,533.552C859.758,524.113 858.321,512.225 846.851,506.489C836.785,501.457 835.225,500.975 826.763,500.485Z"/>
        </g>
        <g transform="matrix(1.16779,0,0,1.11538,-200.951,-91.4519)">
            <path d="M991.014,518.885C991.368,518.655 991.804,518.565 992.228,518.647C992.463,518.612 992.906,518.555 993.145,518.586L993.827,518.792C1000.46,522.109 999.602,523.146 1006.15,526.419C1010.28,528.485 1012.02,533.696 1011.29,539.718C1010.18,548.85 1003.49,559.693 993.103,562.153C988.619,563.215 983.43,562.752 977.683,559.879C972.367,557.22 968.348,551.24 966.425,547.465C965.483,545.616 965.056,544.206 965.039,543.804C964.81,538.313 964.942,534.084 965.559,530.814C966.237,527.223 967.509,524.707 969.446,522.887C971.354,521.092 973.944,519.959 977.417,519.25C980.598,518.601 984.57,518.292 989.482,518.033C990.134,517.999 990.718,518.349 991.014,518.885ZM990.47,521.063C990.234,521.217 989.956,521.313 989.655,521.329C984.942,521.577 981.13,521.861 978.077,522.484C975.317,523.047 973.223,523.865 971.706,525.291C970.217,526.691 969.323,528.665 968.802,531.426C968.224,534.488 968.122,538.441 968.332,543.567C968.396,543.744 968.819,544.895 969.365,545.966C971.052,549.277 974.496,554.595 979.159,556.927C984.768,559.731 989.744,559.937 993.923,558.48C1000.26,556.272 1004.73,550.353 1006.83,544.328C1008.2,540.373 1008.57,536.358 1007.66,533.302C1007.14,531.545 1006.18,530.126 1004.67,529.371C998.233,526.151 998.958,525.095 992.669,521.904C992.423,521.937 992.065,521.976 991.86,521.95L991.177,521.744C990.866,521.588 990.626,521.347 990.47,521.063Z"/>
        </g>
        <g transform="matrix(1.16779,0,0,1.11538,-200.951,-91.4519)">
            <path d="M1121.68,535.897C1121.46,535.312 1121.59,534.63 1122.06,534.161C1139.05,517.168 1152.28,519.949 1155.08,520.509C1166.11,522.714 1173.42,527.445 1177.94,533.22C1184.78,541.976 1185.23,553.205 1182.12,562.18C1179.87,568.692 1175.73,573.99 1170.9,576.406C1155.81,583.948 1145.33,584.591 1137.87,582.448C1131.01,580.475 1126.62,576.129 1123.53,572.265C1121.64,569.896 1120.29,567.726 1119.12,566.563C1115.13,562.568 1113.22,558.867 1112.55,555.467C1111.76,551.429 1112.71,547.769 1114.24,544.428C1115.64,541.372 1117.54,538.601 1118.82,536.057C1119.22,535.242 1120.21,534.912 1121.03,535.319C1121.3,535.455 1121.52,535.658 1121.68,535.897ZM1121.84,536.225C1121.99,536.637 1121.98,537.109 1121.77,537.532C1120.51,540.047 1118.63,542.783 1117.24,545.803C1115.99,548.539 1115.14,551.526 1115.79,554.832C1116.36,557.726 1118.06,560.83 1121.46,564.229C1122.68,565.452 1124.12,567.717 1126.11,570.207C1128.84,573.631 1132.7,577.528 1138.78,579.276C1145.71,581.267 1155.41,580.46 1169.42,573.454C1173.59,571.37 1177.06,566.719 1179,561.1C1181.78,553.093 1181.44,543.064 1175.34,535.253C1171.22,529.984 1164.49,525.757 1154.44,523.745C1151.88,523.233 1139.91,520.975 1124.39,536.495C1123.75,537.139 1122.7,537.139 1122.06,536.495C1121.97,536.411 1121.9,536.32 1121.84,536.225Z"/>
        </g>
        <g transform="matrix(1.16779,0,0,1.11538,-200.951,-91.4519)">
            <path d="M1094.07,560.911C1095.79,561.136 1099.74,561.78 1103.27,563.38C1106.37,564.787 1109.1,566.945 1110.12,570.008C1114.54,583.252 1109.79,592.649 1102.36,597.151C1095.62,601.232 1086.55,601.278 1079.68,596.468C1075.15,593.299 1071.54,588.018 1070.26,580.335C1069,572.79 1069.46,568.249 1071.46,565.388C1072.75,563.535 1074.69,562.292 1077.38,561.454C1080.88,560.359 1085.8,559.941 1092.27,559.353C1093.18,559.27 1093.98,559.939 1094.07,560.846C1094.07,560.868 1094.07,560.89 1094.07,560.911ZM1091.53,562.733C1086.83,563.158 1083.03,563.495 1080.06,564.157C1077.31,564.77 1075.33,565.607 1074.16,567.277C1072.5,569.668 1072.46,573.486 1073.52,579.792C1074.62,586.426 1077.66,591.028 1081.57,593.764C1087.35,597.811 1094.98,597.761 1100.65,594.328C1107,590.481 1110.77,582.37 1106.99,571.051C1106.25,568.834 1104.15,567.404 1101.9,566.386C1098.1,564.664 1093.76,564.19 1092.97,564.102C1092.22,564.019 1091.65,563.444 1091.53,562.733Z"/>
        </g>
        <g transform="matrix(1.16779,0,0,1.11538,-200.951,-91.4519)">
            <path d="M1005.44,591.483C1004.81,590.838 1004.81,589.803 1005.45,589.164C1007.2,587.419 1015.98,578.688 1028.34,577.59C1036.59,576.857 1046.48,579.455 1056.92,589.897C1066.43,599.407 1064.92,611.042 1060.66,620.443C1057.77,626.816 1053.63,632.123 1051.05,634.907C1049.77,636.296 1048.78,637.098 1048.42,637.275C1032.55,645.213 1022.41,639.308 1015.23,633.778C1012.41,631.609 1010.1,629.486 1008.08,628.475C998.373,623.621 996.928,615.008 998.467,607.09C999.781,600.328 1003.33,594.131 1005.44,591.483ZM1008.59,590.707C1009.16,591.354 1009.14,592.345 1008.52,592.964C1006.84,594.648 1003.03,600.881 1001.71,607.72C1000.43,614.29 1001.5,621.495 1009.56,625.523C1011.72,626.607 1014.22,628.84 1017.24,631.163C1023.66,636.106 1032.72,641.413 1046.89,634.352C1047,634.262 1047.85,633.507 1048.63,632.667C1051.05,630.052 1054.94,625.067 1057.65,619.08C1061.4,610.824 1062.94,600.582 1054.59,592.231C1045.08,582.725 1036.14,580.21 1028.63,580.877C1018.66,581.763 1011.27,588.141 1008.59,590.707Z"/>
        </g>
        <g transform="matrix(1.16779,0,0,1.11538,-200.951,-91.4519)">
            <path d="M903.962,551.411C911.78,535.849 930.752,536.103 944.909,541.915C950.526,544.221 955.355,547.382 958.397,550.669C960.64,553.093 961.926,555.625 962.064,557.965C962.93,572.683 960.704,580.566 957.335,585.415C953.943,590.295 949.328,592.161 945.132,594.679C935.061,600.721 929.143,602.979 924.502,602.571C919.747,602.153 916.152,599.002 910.848,593.697C910.204,593.053 910.204,592.008 910.848,591.364C910.931,591.281 911.021,591.208 911.116,591.146C910.531,591.36 909.85,591.233 909.381,590.764C902.535,583.918 899.155,570.631 898.68,568.73C896.286,559.156 899.731,555.123 902.255,552.888C902.747,552.452 903.206,552.093 903.576,551.777C903.722,551.651 903.919,551.454 903.962,551.411ZM911.446,590.981C912.031,590.768 912.712,590.895 913.181,591.364C917.759,595.942 920.687,598.923 924.791,599.284C929.009,599.655 934.283,597.339 943.434,591.849C947.253,589.558 951.538,587.973 954.625,583.531C957.735,579.056 959.569,571.744 958.77,558.159C958.669,556.455 957.608,554.676 955.975,552.911C953.202,549.914 948.776,547.07 943.656,544.968C930.983,539.765 913.869,538.975 906.89,552.933C906.647,553.419 906.092,553.983 905.306,554.63C904.34,555.426 902.916,556.534 902.025,558.529C901.107,560.585 900.783,563.536 901.881,567.929C902.322,569.694 905.36,582.076 911.714,588.43C912.358,589.074 912.358,590.12 911.714,590.764C911.631,590.847 911.541,590.92 911.446,590.981Z"/>
        </g>
        <g transform="matrix(1.16779,0,0,1.11538,-200.951,-91.4519)">
            <path d="M870.764,579.272C870.778,578.869 870.938,578.471 871.246,578.163C871.89,577.519 872.935,577.519 873.579,578.163C873.766,578.35 873.913,578.501 874.023,578.615C880.674,580.79 881.105,579.72 887.262,583.824C893.037,587.674 894.92,593.924 894.386,600.149C893.868,606.188 891.044,612.167 887.513,615.698C880.259,622.952 869.402,621.149 861.301,615.431C856.521,612.058 852.746,607.353 851.266,602.551C850.214,599.141 850.294,595.676 851.869,592.526C854.859,586.546 856.715,583.529 859.402,581.813C861.861,580.244 865.081,579.741 870.764,579.272ZM873.598,581.944C873.328,582.224 872.958,582.41 872.539,582.442C866.698,582.891 863.524,583.097 861.178,584.595C858.848,586.082 857.413,588.818 854.821,594.002C853.318,597.008 853.701,600.39 855.204,603.594C856.819,607.038 859.722,610.278 863.204,612.735C869.998,617.53 879.096,619.449 885.18,613.365C888.241,610.304 890.649,605.103 891.098,599.867C891.531,594.815 890.118,589.694 885.431,586.57C879.847,582.847 879.249,583.712 873.598,581.944Z"/>
        </g>
        <g transform="matrix(1.16779,0,0,1.11538,-200.951,-91.4519)">
            <path d="M775.562,579.435C775.126,580.176 774.183,580.462 773.403,580.072C770.581,578.661 770.607,579.132 765.017,578.014C762.051,577.421 758.994,575.445 756.316,572.606C752.483,568.545 749.406,562.732 748.395,557.154C747.196,550.537 748.869,544.286 755.069,541.186C766.581,535.43 775.648,536.314 781.904,540.269C796.666,549.601 795.947,576.471 775.562,579.435ZM773.805,576.607C774.041,576.405 774.338,576.267 774.67,576.226C792.276,574.025 792.701,550.998 780.141,543.059C774.637,539.58 766.672,539.074 756.545,544.137C751.759,546.53 750.717,551.458 751.642,556.566C752.544,561.54 755.298,566.719 758.716,570.342C760.871,572.626 763.277,574.301 765.664,574.779C771.017,575.849 771.679,575.654 773.805,576.607Z"/>
        </g>
        <g transform="matrix(1.16779,0,0,1.11538,-200.951,-91.4519)">
            <path d="M708.766,557.562C709.027,556.739 709.889,556.249 710.738,556.462C710.969,556.519 711.329,556.609 711.8,556.734C712.153,556.643 712.51,556.552 712.871,556.462C713.738,556.245 714.617,556.758 714.859,557.612C719.423,559.02 726.74,561.712 732.97,566.049C738.593,569.964 743.305,575.214 744.616,581.964C745.493,586.483 744.868,591.697 741.882,597.669C741.239,598.955 739.22,604.382 736.616,609.393C734.764,612.956 732.596,616.293 730.436,618.02C729.991,618.376 729.02,618.833 727.602,619.215C724.915,619.939 720.357,620.588 715.23,620.484C703.991,620.256 690.204,616.335 686.736,602.465C685.499,597.517 683.563,592.484 682.563,587.585C681.486,582.306 681.486,577.178 684.204,572.424C687.396,566.841 694.503,561.665 708.766,557.562ZM711.789,560.148C697.349,563.986 690.15,568.673 687.069,574.062C684.765,578.092 684.883,582.451 685.797,586.925C686.787,591.778 688.712,596.763 689.938,601.664C692.996,613.896 705.386,616.983 715.297,617.185C720.04,617.281 724.258,616.698 726.743,616.029C727.542,615.813 728.124,615.644 728.375,615.443C730.257,613.938 732.074,610.977 733.688,607.871C736.282,602.88 738.29,597.474 738.93,596.193C741.518,591.017 742.137,586.51 741.376,582.593C740.23,576.69 736.001,572.181 731.085,568.758C724.095,563.891 715.661,561.218 711.789,560.148Z"/>
        </g>
        <g transform="matrix(1.16779,0,0,1.11538,-200.951,-91.4519)">
            <path d="M1159.33,697.961C1159.53,697.981 1159.72,698.036 1159.9,698.127C1165.5,700.927 1165.49,700.863 1165.94,701.163C1167.27,702.048 1168.26,703.474 1168.89,705.32C1169.7,707.687 1169.93,710.799 1169.72,714.133C1169.37,719.738 1167.78,725.986 1165.94,730.151C1165.08,732.105 1164.14,733.623 1163.26,734.504C1160.9,736.861 1157.68,737.965 1154.09,738.014C1149.08,738.083 1143.3,736.075 1138.38,732.826C1129.93,727.246 1124.25,718.063 1128.35,709.865C1131.59,703.376 1134.19,700.127 1137.21,698.438C1139.1,697.38 1141.17,696.906 1143.71,696.72C1147.13,696.469 1151.49,696.743 1157.62,696.487C1158.5,696.451 1159.24,697.103 1159.33,697.961ZM1157.52,699.794C1152.54,699.992 1148.74,699.843 1145.66,699.928C1142.86,700.007 1140.72,700.255 1138.82,701.317C1136.21,702.781 1134.11,705.717 1131.3,711.341C1129.67,714.593 1130.1,718.01 1131.73,721.169C1133.48,724.575 1136.59,727.686 1140.2,730.072C1144.54,732.94 1149.62,734.775 1154.04,734.715C1156.73,734.678 1159.16,733.932 1160.93,732.171C1161.85,731.247 1162.77,729.386 1163.63,727.074C1165.02,723.317 1166.15,718.4 1166.43,713.924C1166.61,711.076 1166.46,708.412 1165.77,706.39C1165.4,705.309 1164.89,704.427 1164.11,703.909C1163.69,703.627 1163.68,703.71 1158.42,701.078C1157.91,700.82 1157.58,700.328 1157.52,699.794Z"/>
        </g>
        <g transform="matrix(1.16779,0,0,1.11538,-200.951,-91.4519)">
            <path d="M1011.45,683.768C1024.11,696.421 1020.87,714.02 1016.26,723.936C1014.84,726.986 1013.29,729.313 1012.04,730.593C1011.31,731.348 1010.62,731.788 1010.07,731.969C1000.99,734.999 998.448,736.249 997.341,736.743C996.587,737.08 996.242,737.165 995.682,737.186C989.824,737.412 985.407,737.801 981.86,737.769C977.978,737.735 975.059,737.188 972.455,735.585C969.118,733.53 966.259,729.643 962.608,722.341C956.044,709.214 955.213,701.392 956.54,696.267C957.479,692.643 959.48,690.261 961.56,688.308C963.414,686.567 965.371,685.272 966.275,683.464C969.861,676.291 976.791,673.625 983.269,673.025C989.64,672.435 995.515,673.872 997.09,674.659C998.307,675.267 1007.67,679.984 1011.45,683.768ZM1009.12,686.102C1005.57,682.552 996.755,678.181 995.614,677.61C994.244,676.925 989.117,675.798 983.573,676.311C978.135,676.815 972.237,678.919 969.226,684.94C968.485,686.422 967.225,687.676 965.773,688.965C963.436,691.038 960.503,693.254 959.588,697.729C958.628,702.427 959.833,709.413 965.559,720.866C968.812,727.372 971.212,730.944 974.185,732.774C976.313,734.085 978.718,734.441 981.89,734.469C985.396,734.5 989.763,734.111 995.555,733.889C995.858,733.877 995.976,733.738 996.573,733.468C997.996,732.826 1001.05,731.5 1009.03,728.839C1009.34,728.737 1009.67,728.337 1010.11,727.814C1011.09,726.641 1012.21,724.817 1013.27,722.545C1017.45,713.554 1020.59,697.574 1009.12,686.102Z"/>
        </g>
        <g transform="matrix(1.16779,0,0,1.11538,-200.951,-91.4519)">
            <path d="M927.686,714.842C929.174,715.09 942.369,716.623 949.116,723.37C951.439,725.693 952.971,729.914 953.178,734.607C953.481,741.503 950.958,749.332 944.582,753.261C940.084,756.034 933.602,756.94 924.693,753.97C915.088,750.769 910.721,746.17 909.393,741.42C908.127,736.894 909.585,732.072 912.345,727.762C916.291,721.598 922.853,716.517 926.802,714.938C927.083,714.826 927.388,714.793 927.686,714.842ZM927.633,718.168C924.069,719.752 918.53,724.221 915.124,729.541C912.896,733.021 911.549,736.877 912.571,740.531C913.693,744.545 917.621,748.134 925.737,750.84C933.399,753.394 938.981,752.837 942.851,750.452C948.19,747.161 950.135,740.528 949.881,734.752C949.716,730.995 948.642,727.563 946.783,725.704C941.09,720.011 930.311,718.538 927.633,718.168Z"/>
        </g>
        <g transform="matrix(1.16779,0,0,1.11538,-200.951,-91.4519)">
            <path d="M832.811,674.657C833.15,674.488 833.548,674.435 833.944,674.534C846.681,677.718 852.006,684.089 853.041,690.817C854.581,700.839 846.291,712.15 837.329,716.396C833.276,718.317 829.107,718.794 825.617,717.32C823.237,716.314 821.134,714.408 819.601,711.341C817.747,707.633 813.927,703.595 811.661,699.396C810.104,696.511 809.253,693.546 809.841,690.573C810.239,688.56 811.29,686.521 813.31,684.502C817.981,679.83 819.788,677.772 822.836,676.489C824.858,675.637 827.445,675.13 831.844,674.501C832.187,674.452 832.522,674.513 832.811,674.657ZM832.811,677.613C832.657,677.689 832.489,677.742 832.311,677.768C828.313,678.339 825.954,678.757 824.117,679.53C821.377,680.684 819.842,682.637 815.643,686.835C814.177,688.301 813.367,689.753 813.078,691.213C812.635,693.451 813.394,695.657 814.566,697.829C816.848,702.058 820.685,706.131 822.553,709.865C826.444,717.648 834.922,715.387 841.313,709.819C847.349,704.561 851.789,696.174 849.187,688.992C847.444,684.183 842.535,680.083 833.144,677.735C833.026,677.706 832.915,677.665 832.811,677.613Z"/>
        </g>
        <g transform="matrix(1.16779,0,0,1.11538,-200.951,-91.4519)">
            <path d="M743.691,713.286C743.281,712.909 743.071,712.332 743.188,711.746C743.931,708.034 744.76,706.965 746.21,705.714C747.001,705.03 748.047,704.296 749.507,702.836C762.195,690.147 777.233,692.439 787.896,698.966C795.059,703.352 800.181,709.687 801.41,714.603C804.301,726.169 804.028,731.899 802.377,735.54C801.491,737.492 800.213,738.9 798.703,740.24C797.39,741.407 795.888,742.525 794.375,744.038C787.443,750.97 780.02,753.641 772.994,753.533C762.52,753.372 752.867,746.954 746.944,738.883C740.689,730.359 738.724,720.078 743.691,713.286ZM746.693,711.207C746.967,711.279 747.226,711.422 747.44,711.636C748.084,712.28 748.084,713.326 747.44,713.97C744.717,716.692 743.824,720.367 744.256,724.288C744.716,728.468 746.659,732.917 749.605,736.931C754.946,744.209 763.6,750.088 773.045,750.233C779.299,750.329 785.871,747.875 792.042,741.704C793.606,740.14 795.154,738.979 796.512,737.773C797.674,736.741 798.69,735.681 799.371,734.178C800.853,730.91 800.803,725.783 798.208,715.403C797.127,711.08 792.473,705.638 786.173,701.781C776.639,695.944 763.185,693.824 751.84,705.169C750.662,706.347 749.737,707.089 748.989,707.696C747.813,708.649 747.217,709.2 746.693,711.207Z"/>
        </g>
        <g transform="matrix(1.16779,0,0,1.11538,-200.951,-91.4519)">
            <path d="M727.895,771.37C728.267,772.002 728.182,772.83 727.639,773.373C723.617,777.394 720.827,779.259 718.182,779.752C716.458,780.073 714.762,779.853 712.815,779.166C710.31,778.283 707.311,776.571 703,774.415C696.11,770.97 692.72,763.527 692.752,755.97C692.783,748.454 696.207,740.898 702.67,737.177C708.15,734.022 715.893,733.537 725.743,738.462C734.897,743.039 736.191,753.668 733.677,761.972C732.463,765.983 730.337,769.382 727.895,771.37ZM723.404,772.875C723.051,772.657 722.78,772.306 722.671,771.873C722.45,770.989 722.988,770.093 723.872,769.872C724.91,769.612 725.893,768.907 726.8,767.936C728.373,766.254 729.68,763.79 730.519,761.016C732.603,754.13 731.858,745.209 724.268,741.413C715.743,737.151 709.059,737.306 704.316,740.037C698.853,743.182 696.078,749.631 696.052,755.984C696.026,762.296 698.721,768.586 704.476,771.463C707.964,773.207 710.563,774.661 712.741,775.593C714.584,776.382 716.057,776.791 717.577,776.508C719.326,776.182 721.076,775.022 723.404,772.875Z"/>
        </g>
        <g transform="matrix(1.16779,0,0,1.11538,-200.951,-91.4519)">
            <path d="M876.864,736.156C877.202,735.592 877.863,735.262 878.551,735.377C880.811,735.753 893.355,737.798 901.023,753.134C902.296,755.68 910.397,771.757 894.114,788.04C890.978,791.176 885.489,793.061 879.488,793.925C870.792,795.177 861.055,794.36 856.49,792.839C855.972,792.666 854.995,791.874 854,790.678C852.268,788.595 850.071,785.303 849.772,784.855C842.955,774.63 841.167,767.578 841.517,762.52C841.849,757.73 844.055,754.594 846.134,752.18C847.287,750.841 848.409,749.786 848.936,748.734C853.597,739.41 861.166,736.987 867.69,736.388C871.416,736.046 874.766,736.348 876.864,736.156ZM878.825,738.78C878.572,739.09 878.206,739.31 877.779,739.371C875.696,739.669 872.065,739.301 867.992,739.674C862.4,740.188 855.883,742.219 851.887,750.209C851.265,751.454 849.999,752.75 848.635,754.334C846.938,756.304 845.08,758.838 844.809,762.748C844.49,767.356 846.308,773.71 852.518,783.024C852.802,783.451 854.889,786.586 856.537,788.568C856.94,789.052 857.53,789.624 857.659,789.749C861.974,791.143 870.974,791.817 879.018,790.659C884.229,789.909 889.057,788.429 891.78,785.706C906.298,771.188 899.206,756.88 898.071,754.61C891.859,742.186 882.123,739.44 878.825,738.78Z"/>
        </g>
        <g transform="matrix(1.16779,0,0,1.11538,-200.951,-91.4519)">
            <path d="M1043.11,757.831C1048.87,761.189 1062.61,775.752 1048.12,790.24C1041.67,796.695 1035.33,798.788 1029.7,798.363C1021.27,797.725 1014.32,791.31 1010.72,784.645C1008.01,779.638 1007.29,774.5 1008.81,771.468C1012.51,764.07 1015.28,759.833 1018.52,757.447C1021.09,755.553 1023.97,754.746 1027.87,754.564C1031.43,754.397 1035.91,754.757 1041.93,755.159C1042.84,755.219 1043.53,756.006 1043.47,756.915C1043.44,757.262 1043.32,757.577 1043.11,757.831ZM1040.3,758.356C1035.14,758.005 1031.2,757.711 1028.02,757.86C1024.89,758.007 1022.55,758.581 1020.48,760.104C1017.52,762.275 1015.13,766.213 1011.76,772.944C1011.34,773.784 1011.23,774.86 1011.32,776.063C1011.49,778.178 1012.31,780.638 1013.62,783.076C1016.74,788.842 1022.66,794.52 1029.95,795.072C1034.81,795.439 1040.21,793.48 1045.79,787.907C1058.35,775.346 1045.57,762.726 1041.08,760.481C1040.3,760.089 1039.96,759.153 1040.3,758.356Z"/>
        </g>
        <g transform="matrix(1.16779,0,0,1.11538,-200.951,-91.4519)">
            <path d="M1059.97,748.093C1059.92,748.11 1059.87,748.126 1059.82,748.139C1058.94,748.36 1058.04,747.822 1057.82,746.938C1055.28,736.754 1061.16,726.586 1070.3,720.263C1079.34,714.005 1091.46,711.577 1101.23,716.461C1113.58,722.635 1119.93,728.478 1122.46,735.163C1124.99,741.867 1123.72,749.532 1120.39,759.527C1118.41,765.468 1112.66,770.696 1105.34,773.854C1095.27,778.202 1082.3,778.623 1072.75,771.976C1066.37,767.542 1061.45,759.967 1059.98,748.209C1059.98,748.17 1059.98,748.131 1059.97,748.093ZM1061.07,746.45C1061.18,746.41 1061.3,746.383 1061.42,746.367C1062.32,746.254 1063.15,746.896 1063.26,747.8C1064.58,758.388 1068.89,765.274 1074.63,769.267C1083.25,775.261 1094.95,774.745 1104.04,770.824C1110.4,768.075 1115.54,763.655 1117.26,758.483C1120.29,749.387 1121.68,742.432 1119.37,736.33C1117.06,730.21 1111.06,725.066 1099.75,719.412C1091.04,715.055 1080.24,717.392 1072.18,722.976C1064.2,728.496 1058.8,737.248 1061.02,746.138C1061.05,746.242 1061.06,746.346 1061.07,746.45Z"/>
        </g>
        <g transform="matrix(1.16779,0,0,1.11538,-200.951,-91.4519)">
            <path d="M733.506,410.355C732.862,410.999 731.816,410.999 731.172,410.355C730.528,409.711 730.528,408.666 731.172,408.022C742.308,396.886 754.576,392.925 760.203,390.112C761.017,389.705 762.009,390.035 762.416,390.85C762.824,391.664 762.493,392.656 761.678,393.063C756.226,395.79 744.297,399.564 733.506,410.355Z"/>
        </g>
        <g transform="matrix(1.16779,0,0,1.11538,-200.951,-91.4519)">
            <path d="M797.613,378.396C796.799,378.803 795.807,378.473 795.4,377.658C794.992,376.844 795.323,375.852 796.138,375.444L822.539,362.244C823.353,361.837 824.345,362.167 824.753,362.982C825.16,363.796 824.829,364.788 824.015,365.195L797.613,378.396Z"/>
        </g>
        <g transform="matrix(1.16779,0,0,1.11538,-200.951,-91.4519)">
            <path d="M852.612,365.37C851.701,365.37 850.962,364.63 850.962,363.72C850.962,362.809 851.701,362.07 852.612,362.07C927.175,362.07 927.005,362.998 957.552,364.271C958.462,364.309 959.17,365.079 959.132,365.988C959.094,366.898 958.324,367.606 957.415,367.568C926.908,366.297 927.078,365.37 852.612,365.37Z"/>
        </g>
        <g transform="matrix(1.16779,0,0,1.11538,-200.951,-91.4519)">
            <path d="M1128.04,379.654C1127.8,379.586 1125.06,378.797 1121.93,378.33C1106.04,375.954 1065.22,373.599 1022.92,377.829C1022.01,377.919 1021.2,377.257 1021.11,376.351C1021.02,375.445 1021.68,374.636 1022.59,374.545C1065.24,370.28 1106.39,372.671 1122.42,375.067C1125.35,375.504 1127.47,375.952 1128.66,376.353C1129.49,376.633 1130.01,376.967 1130.26,377.22C1130.9,377.864 1130.9,378.91 1130.26,379.554C1129.65,380.162 1128.68,380.196 1128.04,379.654Z"/>
        </g>
        <g transform="matrix(1.16779,0,0,1.11538,-200.951,-91.4519)">
            <path d="M950.331,393.694C949.574,394.199 948.548,393.994 948.043,393.236C947.538,392.479 947.743,391.453 948.501,390.948C951.106,389.211 967.046,378.594 983.363,373.155C984.227,372.867 985.162,373.334 985.45,374.198C985.738,375.062 985.27,375.998 984.406,376.285C968.455,381.603 952.878,391.996 950.331,393.694Z"/>
        </g>
        <g transform="matrix(1.16779,0,0,1.11538,-200.951,-91.4519)">
            <path d="M900.069,419.554C899.205,419.842 898.27,419.375 897.982,418.511C897.694,417.647 898.161,416.712 899.025,416.424C901.323,415.658 900.744,415.179 925.944,402.579C926.758,402.172 927.75,402.502 928.158,403.317C928.565,404.132 928.234,405.123 927.42,405.531C901.832,418.325 902.402,418.777 900.069,419.554Z"/>
        </g>
        <g transform="matrix(1.16779,0,0,1.11538,-200.951,-91.4519)">
            <path d="M1053.56,433.399C1052.75,433.806 1051.75,433.475 1051.35,432.661C1050.94,431.846 1051.27,430.854 1052.08,430.447C1062.9,425.04 1068.58,422.857 1072.31,421.275C1075.79,419.799 1077.45,418.891 1080.26,416.089C1080.9,415.445 1081.94,415.445 1082.59,416.089C1083.23,416.733 1083.23,417.778 1082.59,418.422C1079.41,421.597 1077.54,422.641 1073.6,424.313C1069.9,425.88 1064.27,428.042 1053.56,433.399Z"/>
        </g>
        <g transform="matrix(1.16779,0,0,1.11538,-200.951,-91.4519)">
            <path d="M902.559,436.504C901.649,436.548 900.876,435.844 900.832,434.935C900.789,434.025 901.492,433.252 902.402,433.208C934.39,431.685 950.571,433.487 954.732,433.95C983.454,437.141 996.85,434.392 1012.67,436.15C1013.57,436.25 1014.23,437.067 1014.13,437.972C1014.02,438.877 1013.21,439.53 1012.3,439.43C996.486,437.672 983.09,440.421 954.368,437.23C950.248,436.772 934.228,434.996 902.559,436.504Z"/>
        </g>
        <g transform="matrix(1.16779,0,0,1.11538,-200.951,-91.4519)">
            <path d="M802.88,395.432C801.972,395.508 801.174,394.832 801.098,393.925C801.023,393.017 801.698,392.219 802.605,392.143C806.436,391.824 825.339,390.247 850.63,393.619C880.39,397.587 880.292,395.044 909.978,398.013C910.885,398.103 911.547,398.913 911.456,399.819C911.365,400.725 910.556,401.387 909.65,401.296C879.91,398.322 880.008,400.865 850.193,396.89C825.277,393.568 806.653,395.118 802.88,395.432Z"/>
        </g>
        <g transform="matrix(1.16779,0,0,1.11538,-200.951,-91.4519)">
            <path d="M946.483,405.705C945.572,405.705 944.833,404.966 944.833,404.055C944.833,403.144 945.572,402.405 946.483,402.405C973.886,402.405 973.76,401.218 1000.96,404.618C1018.03,406.752 1041.55,406.072 1058.69,406.072C1059.6,406.072 1060.34,406.811 1060.34,407.722C1060.34,408.632 1059.6,409.372 1058.69,409.372C1041.43,409.372 1017.75,410.042 1000.55,407.892C973.555,404.518 973.68,405.705 946.483,405.705Z"/>
        </g>
        <g transform="matrix(1.16779,0,0,1.11538,-200.951,-91.4519)">
            <path d="M730.139,424.039C729.228,424.039 728.489,423.3 728.489,422.389C728.489,421.478 729.228,420.739 730.139,420.739C751.375,420.739 751.273,420.24 772.265,424.438C790.509,428.087 832.682,428.073 837.944,428.073C838.855,428.073 839.594,428.812 839.594,429.723C839.594,430.633 838.855,431.373 837.944,431.373C832.63,431.373 790.042,431.359 771.617,427.674C750.948,423.54 751.048,424.039 730.139,424.039Z"/>
        </g>
        <g transform="matrix(1.16779,0,0,1.11538,-200.951,-91.4519)">
            <path d="M870.765,464.828C870.819,463.918 871.6,463.224 872.509,463.277C873.418,463.331 874.113,464.112 874.06,465.021C872.274,495.385 876.607,506.085 878.431,515.203C879.431,520.203 881.623,530.927 874.779,578.83C874.65,579.731 873.814,580.359 872.913,580.23C872.011,580.101 871.384,579.265 871.512,578.363C878.236,531.295 876.177,520.763 875.195,515.85C873.341,506.58 868.949,495.699 870.765,464.828Z"/>
        </g>
        <g transform="matrix(1.16779,0,0,1.11538,-200.951,-91.4519)">
            <path d="M1030.75,577.272C1030.75,577.272 1030.99,571.926 1030.93,565.876C1030.63,538.249 1027.99,472.212 1027.7,464.99C1027.67,464.08 1028.38,463.312 1029.29,463.276C1030.2,463.239 1030.97,463.949 1031,464.859C1031.29,472.087 1033.93,538.187 1034.23,565.841C1034.29,571.458 1034.25,575.513 1034.08,577.216C1034.01,577.938 1033.86,578.399 1033.76,578.601C1033.36,579.416 1032.36,579.746 1031.55,579.339C1030.78,578.956 1030.44,578.055 1030.75,577.272Z"/>
        </g>
        <g transform="matrix(1.16779,0,0,1.11538,-200.951,-91.4519)">
            <path d="M1088.61,444.067C1088.78,443.174 1089.65,442.594 1090.55,442.772C1091.44,442.951 1092.02,443.821 1091.84,444.714C1089.02,458.811 1094.74,532.383 1091.86,558.244C1091.76,559.15 1090.95,559.803 1090.04,559.702C1089.14,559.602 1088.48,558.785 1088.58,557.88C1091.46,531.954 1085.78,458.198 1088.61,444.067Z"/>
        </g>
        <g transform="matrix(1.16779,0,0,1.11538,-200.951,-91.4519)">
            <path d="M1148.03,405.121C1148.25,404.238 1149.14,403.7 1150.03,403.921C1150.91,404.142 1151.45,405.038 1151.23,405.922C1151.12,406.353 1148.2,491.74 1150.54,519.79C1150.61,520.698 1149.94,521.496 1149.03,521.571C1148.12,521.647 1147.32,520.972 1147.25,520.064C1144.89,491.75 1147.92,405.557 1148.03,405.121Z"/>
        </g>
        <g transform="matrix(1.16779,0,0,1.11538,-200.951,-91.4519)">
            <path d="M985.169,407.057C985.131,406.147 985.839,405.378 986.749,405.34C987.659,405.302 988.429,406.01 988.467,406.92C990.033,444.518 984.676,444.651 991.375,481.497C992.354,486.881 991.989,486.746 994.332,524.224C994.388,525.133 993.697,525.917 992.788,525.974C991.879,526.031 991.095,525.339 991.038,524.43C988.717,487.29 989.098,487.422 988.128,482.087C981.388,445.017 986.746,444.884 985.169,407.057Z"/>
        </g>
        <g transform="matrix(1.16779,0,0,1.11538,-200.951,-91.4519)">
            <path d="M927.997,427.113C927.819,426.22 928.399,425.35 929.292,425.171C930.185,424.993 931.055,425.573 931.233,426.466C934.355,442.077 934.579,476.045 934.005,490.606C933.852,494.475 933.602,497.051 933.381,497.714C930.482,506.41 930.532,537.709 930.532,541.195C930.532,542.105 929.793,542.845 928.882,542.845C927.971,542.845 927.232,542.105 927.232,541.195C927.232,537.625 927.282,505.576 930.25,496.671C930.443,496.093 930.575,493.844 930.707,490.476C931.274,476.092 931.082,442.535 927.997,427.113Z"/>
        </g>
        <g transform="matrix(1.16779,0,0,1.11538,-200.951,-91.4519)">
            <path d="M825.294,387.921C825.294,387.01 826.033,386.271 826.944,386.271C827.854,386.271 828.594,387.01 828.594,387.921C828.594,425.283 826.739,445.59 828.571,456.586C831.398,473.549 830.794,473.356 830.794,497.193C830.794,498.103 830.054,498.843 829.144,498.843C828.233,498.843 827.494,498.103 827.494,497.193C827.494,473.675 828.105,473.864 825.316,457.129C823.469,446.046 825.294,425.578 825.294,387.921Z"/>
        </g>
        <g transform="matrix(1.16779,0,0,1.11538,-200.951,-91.4519)">
            <path d="M768.308,537.576C768.676,538.38 768.342,539.339 767.545,539.737C766.731,540.144 765.739,539.814 765.332,538.999C765.202,538.739 765.048,538.25 764.938,537.54C764.763,536.403 764.622,534.471 764.531,531.954C764.021,517.956 764.94,485.392 768.14,472.591C772.306,455.93 771.178,427.142 771.026,423.186C770.991,422.276 771.701,421.509 772.611,421.474C773.521,421.439 774.288,422.149 774.323,423.059C774.478,427.09 775.585,456.416 771.342,473.392C768.191,485.993 767.327,518.054 767.829,531.834C767.902,533.858 768.005,535.48 768.137,536.574C768.189,537.005 768.296,537.516 768.308,537.576Z"/>
        </g>
        <g transform="matrix(1.16779,0,0,1.11538,-200.951,-91.4519)">
            <path d="M710.329,439.985C710.736,439.171 711.728,438.84 712.543,439.248C713.357,439.655 713.688,440.647 713.281,441.461C713.054,441.915 712.897,442.895 712.719,444.302C712.404,446.783 712.153,450.417 711.953,454.882C710.608,484.949 711.652,552.339 712.709,560.791C712.822,561.695 712.18,562.52 711.276,562.633C710.372,562.746 709.547,562.104 709.434,561.2C708.372,552.704 707.304,484.96 708.656,454.735C708.896,449.375 709.215,445.181 709.618,442.675C709.824,441.387 710.082,440.479 710.329,439.985Z"/>
        </g>
        <g transform="matrix(1.16779,0,0,1.11538,-200.951,-91.4519)">
            <path d="M710.168,622.803C710.055,621.9 710.697,621.074 711.6,620.961C712.504,620.848 713.329,621.49 713.442,622.394C716.265,644.975 715.655,651.033 715.655,737.738C715.655,738.648 714.916,739.388 714.005,739.388C713.094,739.388 712.355,738.648 712.355,737.738C712.355,651.341 712.98,645.304 710.168,622.803Z"/>
        </g>
        <g transform="matrix(1.16779,0,0,1.11538,-200.951,-91.4519)">
            <path d="M738.616,574.348C737.723,574.169 737.143,573.299 737.321,572.406C737.5,571.513 738.37,570.933 739.263,571.112C741.113,571.482 742.345,571.582 743.332,571.292C744.235,571.027 744.879,570.413 745.67,569.538C747.062,568.001 748.722,565.747 751.707,562.762C754.926,559.543 756.988,557.787 759.008,556.722C762.018,555.134 764.963,555.072 771.736,554.225C772.64,554.112 773.465,554.754 773.578,555.657C773.691,556.561 773.049,557.386 772.146,557.499C765.987,558.269 763.284,558.197 760.548,559.641C758.737,560.596 756.925,562.211 754.04,565.096C751.11,568.027 749.483,570.243 748.117,571.752C746.841,573.162 745.716,574.031 744.262,574.458C742.893,574.86 741.181,574.861 738.616,574.348Z"/>
        </g>
        <g transform="matrix(1.16779,0,0,1.11538,-200.951,-91.4519)">
            <path d="M791.442,548.962C790.798,549.606 789.752,549.606 789.108,548.962C788.465,548.318 788.465,547.272 789.108,546.628C801.465,534.272 817.777,528.822 820.555,527.896C821.419,527.608 822.354,528.075 822.642,528.939C822.93,529.803 822.462,530.738 821.598,531.026C818.936,531.914 803.287,537.117 791.442,548.962Z"/>
        </g>
        <g transform="matrix(1.16779,0,0,1.11538,-200.951,-91.4519)">
            <path d="M859.287,532.576C858.377,532.617 857.605,531.912 857.564,531.003C857.522,530.093 858.227,529.321 859.137,529.279C914.762,526.751 914.491,528.298 969.335,532.215C970.243,532.28 970.928,533.07 970.863,533.979C970.798,534.887 970.008,535.572 969.1,535.507C914.447,531.603 914.718,530.056 859.287,532.576Z"/>
        </g>
        <g transform="matrix(1.16779,0,0,1.11538,-200.951,-91.4519)">
            <path d="M1007.76,539.879C1006.87,539.701 1006.29,538.831 1006.47,537.938C1006.65,537.045 1007.52,536.465 1008.41,536.643C1021.99,539.36 1103.61,542.222 1122.64,543.952C1123.55,544.034 1124.22,544.837 1124.13,545.744C1124.05,546.651 1123.25,547.321 1122.34,547.238C1103.25,545.503 1021.39,542.605 1007.76,539.879Z"/>
        </g>
        <g transform="matrix(1.16779,0,0,1.11538,-200.951,-91.4519)">
            <path d="M959.383,557.029C958.739,557.673 957.694,557.673 957.05,557.029C956.406,556.385 956.406,555.339 957.05,554.695C964.919,546.826 968.985,545.326 974.51,543.603C977.99,542.518 982.088,541.348 988.28,538.252C989.095,537.845 990.087,538.176 990.494,538.99C990.901,539.805 990.57,540.797 989.756,541.204C983.341,544.411 979.098,545.629 975.492,546.753C970.389,548.345 966.652,549.76 959.383,557.029Z"/>
        </g>
        <g transform="matrix(1.16779,0,0,1.11538,-200.951,-91.4519)">
            <path d="M1110.42,569.93C1109.54,570.151 1108.64,569.613 1108.42,568.73C1108.2,567.846 1108.74,566.95 1109.62,566.729C1120.96,563.895 1120.04,562.359 1129.64,555.956C1130.53,555.367 1138.76,549.922 1141.04,549.163C1141.9,548.875 1142.84,549.343 1143.12,550.207C1143.41,551.071 1142.94,552.006 1142.08,552.294C1139.95,553.002 1132.3,558.152 1131.47,558.702C1121.39,565.421 1122.32,566.956 1110.42,569.93Z"/>
        </g>
        <g transform="matrix(1.16779,0,0,1.11538,-200.951,-91.4519)">
            <path d="M1058.96,596.358C1058.06,596.508 1057.21,595.9 1057.06,595.002C1056.91,594.104 1057.52,593.253 1058.42,593.103C1060.12,592.819 1064.86,592 1078.48,585.188C1080.89,583.985 1081.25,582.856 1082.02,581.751C1082.73,580.72 1083.65,579.669 1085.82,578.588C1086.63,578.18 1087.62,578.511 1088.03,579.325C1088.44,580.14 1088.11,581.132 1087.29,581.539C1085.45,582.463 1084.9,583.337 1084.34,584.218C1083.54,585.484 1082.71,586.764 1079.96,588.139C1065.72,595.261 1060.74,596.062 1058.96,596.358Z"/>
        </g>
        <g transform="matrix(1.16779,0,0,1.11538,-200.951,-91.4519)">
            <path d="M957.415,572.178C956.505,572.14 955.797,571.371 955.835,570.461C955.873,569.551 956.642,568.843 957.552,568.881C1013.3,571.204 1012.92,574.013 1068.95,574.013C1069.87,574.013 1070.61,574.752 1070.61,575.663C1070.61,576.574 1069.87,577.313 1068.95,577.313C1012.85,577.313 1013.23,574.504 957.415,572.178Z"/>
        </g>
        <g transform="matrix(1.16779,0,0,1.11538,-200.951,-91.4519)">
            <path d="M790.165,561.909C789.257,561.848 788.568,561.061 788.629,560.153C788.689,559.244 789.476,558.555 790.385,558.616C823.857,560.847 829.552,564.479 900.28,564.479C901.191,564.479 901.93,565.219 901.93,566.129C901.93,567.04 901.191,567.779 900.28,567.779C829.411,567.779 823.704,564.145 790.165,561.909Z"/>
        </g>
        <g transform="matrix(1.16779,0,0,1.11538,-200.951,-91.4519)">
            <path d="M910.877,580.6C905.609,585.831 899.327,589.228 895.764,591.293C894.797,591.853 893.743,592.585 893.608,592.679C893.161,593.387 892.24,593.655 891.476,593.273C890.661,592.866 890.33,591.874 890.738,591.059L891.059,590.575C891.184,590.425 891.348,590.261 891.555,590.088C892.067,589.66 892.951,589.109 894.11,588.437C897.532,586.455 903.601,583.21 908.648,578.163C908.854,577.957 910.33,577.133 912.433,576.081C916.6,573.998 923.535,570.609 925.515,568.629C926.159,567.985 927.205,567.985 927.848,568.629C928.492,569.273 928.492,570.319 927.848,570.963C925.731,573.081 918.367,576.804 913.909,579.033C912.503,579.736 911.136,580.462 910.877,580.6Z"/>
        </g>
        <g transform="matrix(1.16779,0,0,1.11538,-200.951,-91.4519)">
            <path d="M745.335,591.968C744.431,591.855 743.79,591.029 743.902,590.126C744.015,589.222 744.841,588.58 745.744,588.693C750.454,589.282 750.432,587.85 805.034,590.883C837.146,592.667 846.859,592.412 851.094,592.531C853.142,592.589 854.053,592.738 855.333,593.165C856.197,593.453 856.665,594.389 856.377,595.252C856.089,596.116 855.154,596.584 854.29,596.296C852.904,595.834 852.045,595.828 848.829,595.795C843.547,595.742 832.45,595.711 804.851,594.178C750.04,591.133 750.063,592.559 745.335,591.968Z"/>
        </g>
        <g transform="matrix(1.16779,0,0,1.11538,-200.951,-91.4519)">
            <path d="M1004.77,609.144C1004.7,609.115 1004,608.829 1003.41,608.679C1001.87,608.289 999.572,607.934 996.709,607.601C977.007,605.31 931.518,604.24 921.344,602.968C907.77,601.272 899.977,600.439 895.145,600.435C892.267,600.433 890.557,600.704 889.284,601.34C888.47,601.747 887.478,601.417 887.071,600.602C886.664,599.788 886.994,598.796 887.809,598.388C889.406,597.59 891.534,597.132 895.148,597.135C900.055,597.14 907.969,597.971 921.753,599.694C931.924,600.965 977.396,602.033 997.091,604.323C1000.68,604.74 1003.44,605.208 1005.04,605.71C1006.05,606.027 1006.71,606.422 1007.05,606.765C1007.7,607.409 1007.7,608.454 1007.05,609.098C1006.42,609.726 1005.41,609.742 1004.77,609.144Z"/>
        </g>
        <g transform="matrix(1.16779,0,0,1.11538,-200.951,-91.4519)">
            <path d="M768.824,580.063C768.824,579.153 769.564,578.413 770.474,578.413C771.385,578.413 772.124,579.153 772.124,580.063C772.124,617.206 777.09,616.564 777.99,640.872C779.175,672.873 774.412,684.543 772.835,694.007C772.685,694.905 771.835,695.513 770.936,695.363C770.038,695.213 769.43,694.362 769.58,693.464C771.138,684.119 775.863,672.596 774.692,640.994C773.79,616.637 768.824,617.28 768.824,580.063Z"/>
        </g>
        <g transform="matrix(1.16779,0,0,1.11538,-200.951,-91.4519)">
            <path d="M831.943,559.862C832.164,558.979 833.061,558.441 833.944,558.662C834.828,558.882 835.366,559.779 835.145,560.663C834.517,563.175 834.479,564.952 834.576,568.888C834.814,578.577 835.925,600.676 832.258,674.017C832.213,674.926 831.438,675.628 830.528,675.582C829.619,675.537 828.917,674.762 828.963,673.852C832.621,600.683 831.515,578.636 831.277,568.969C831.17,564.61 831.248,562.645 831.943,559.862Z"/>
        </g>
        <g transform="matrix(1.16779,0,0,1.11538,-200.951,-91.4519)">
            <path d="M930.902,602.701C930.955,601.792 931.737,601.097 932.646,601.151C933.555,601.204 934.249,601.986 934.196,602.895C933.656,612.075 931.391,650.61 934.93,717.85C934.978,718.759 934.278,719.536 933.369,719.584C932.459,719.632 931.682,718.933 931.634,718.023C928.084,650.568 930.36,611.911 930.902,602.701Z"/>
        </g>
        <g transform="matrix(1.16779,0,0,1.11538,-200.951,-91.4519)">
            <path d="M988.103,563.993C988.068,563.083 988.778,562.315 989.688,562.28C990.598,562.245 991.365,562.956 991.4,563.866C993.563,620.103 985.896,619.895 989.198,676.038C989.252,676.947 988.557,677.728 987.648,677.782C986.739,677.835 985.958,677.141 985.904,676.231C982.6,620.055 990.267,620.264 988.103,563.993Z"/>
        </g>
        <g transform="matrix(1.16779,0,0,1.11538,-200.951,-91.4519)">
            <path d="M1148.15,582.259C1148.56,581.444 1149.55,581.114 1150.36,581.521C1151.18,581.928 1151.51,582.92 1151.1,583.735C1149.02,587.889 1149.19,591.754 1149.73,600.786C1150.59,615.032 1152.58,641.522 1149.81,699.681C1149.76,700.59 1148.99,701.294 1148.08,701.25C1147.17,701.207 1146.47,700.434 1146.51,699.524C1149.73,631.876 1146.49,607.203 1146.13,594.752C1145.96,589.048 1146.4,585.751 1148.15,582.259Z"/>
        </g>
        <g transform="matrix(1.16779,0,0,1.11538,-200.951,-91.4519)">
            <path d="M1086.39,600.869C1086.25,599.971 1086.85,599.12 1087.75,598.97C1088.65,598.82 1089.5,599.428 1089.65,600.326C1092.58,617.912 1088.29,618.323 1094.76,644.2C1100.12,665.651 1092.28,687.336 1088.19,715.97C1088.06,716.871 1087.22,717.499 1086.32,717.37C1085.42,717.241 1084.79,716.405 1084.92,715.503C1088.94,687.368 1096.83,666.078 1091.56,645C1085.05,618.97 1089.34,618.559 1086.39,600.869Z"/>
        </g>
        <g transform="matrix(1.16779,0,0,1.11538,-200.951,-91.4519)">
            <path d="M1032.17,643.343C1032.11,643.596 1031.61,645.463 1031.27,647.576C1029.43,658.8 1027.09,686.74 1031.68,703.568C1033.37,709.766 1036.94,744.796 1034.65,758.543C1034.5,759.441 1033.65,760.049 1032.75,759.899C1031.85,759.75 1031.24,758.899 1031.39,758.001C1033.62,744.606 1030.14,710.475 1028.5,704.437C1023.79,687.187 1026.13,658.55 1028.01,647.044C1028.35,644.946 1028.68,643.395 1028.95,642.55C1029.08,642.168 1029.2,641.886 1029.3,641.702L1029.65,641.233C1030.3,640.589 1031.34,640.589 1031.99,641.233C1032.56,641.807 1032.62,642.7 1032.17,643.343Z"/>
        </g>
        <g transform="matrix(1.16779,0,0,1.11538,-200.951,-91.4519)">
            <path d="M871.528,619.342C871.706,618.449 872.576,617.869 873.469,618.047C874.362,618.226 874.942,619.096 874.764,619.989C871.852,634.548 874.482,673.576 874.792,678.225C875.688,691.658 876.618,734.949 876.964,736.681C877.143,737.574 876.563,738.444 875.67,738.622C874.777,738.801 873.907,738.221 873.728,737.328C873.379,735.584 872.402,691.977 871.5,678.444C871.185,673.727 868.573,634.117 871.528,619.342Z"/>
        </g>
        <g transform="matrix(1.16779,0,0,1.11538,-200.951,-91.4519)">
            <path d="M848.94,696.678C848.126,696.271 847.795,695.279 848.202,694.464C848.61,693.65 849.601,693.319 850.416,693.726C854.835,695.936 858.746,696.492 867.302,696.761C880.672,697.181 904.951,696.82 958.32,700.156C959.228,700.212 959.92,700.997 959.863,701.905C959.807,702.814 959.023,703.506 958.114,703.449C904.805,700.117 880.553,700.479 867.199,700.059C857.938,699.768 853.723,699.07 848.94,696.678Z"/>
        </g>
        <g transform="matrix(1.16779,0,0,1.11538,-200.951,-91.4519)">
            <path d="M1014.69,712.253C1013.77,712.253 1013.04,711.514 1013.04,710.603C1013.04,709.692 1013.77,708.953 1014.69,708.953C1045.6,708.953 1059.89,706.132 1069.56,704.937C1076.32,704.102 1080.91,704.049 1087.08,706.104C1103.96,711.732 1122.86,709.352 1125.95,708.966C1126.86,708.853 1127.68,709.495 1127.8,710.398C1127.91,711.302 1127.27,712.127 1126.36,712.24C1123.15,712.641 1103.55,715.074 1086.03,709.235C1080.38,707.35 1076.16,707.447 1069.97,708.212C1060.23,709.416 1045.82,712.253 1014.69,712.253Z"/>
        </g>
        <g transform="matrix(1.16779,0,0,1.11538,-200.951,-91.4519)">
            <path d="M1145.95,715.727C1146.77,715.32 1147.76,715.651 1148.17,716.465C1148.58,717.28 1148.25,718.272 1147.43,718.679C1147.11,718.838 1146.68,719.28 1146.11,719.845C1145.02,720.942 1143.64,722.487 1142.15,724.05C1139.44,726.89 1136.37,729.716 1134.01,730.502C1133.06,730.821 1125.95,733.189 1121.27,735.081C1119.55,735.78 1118.17,736.328 1117.79,736.704C1117.15,737.348 1116.1,737.348 1115.46,736.704C1114.81,736.06 1114.81,735.015 1115.46,734.371C1115.96,733.867 1117.72,732.958 1120.04,732.022C1124.79,730.101 1132,727.695 1132.97,727.372C1134.97,726.705 1137.47,724.181 1139.76,721.775C1142.43,718.97 1144.85,716.28 1145.95,715.727Z"/>
        </g>
        <g transform="matrix(1.16779,0,0,1.11538,-200.951,-91.4519)">
            <path d="M1080.26,746.105C1080.9,745.461 1081.94,745.461 1082.59,746.105C1083.23,746.749 1083.23,747.794 1082.59,748.438C1073.91,757.12 1074.08,757.189 1063.09,762.681L1052.83,767.815C1052.01,768.222 1051.02,767.891 1050.61,767.077C1050.2,766.262 1050.54,765.27 1051.35,764.863L1061.62,759.73C1072.12,754.478 1071.95,754.406 1080.26,746.105Z"/>
        </g>
        <g transform="matrix(1.16779,0,0,1.11538,-200.951,-91.4519)">
            <path d="M1008.43,773.076C1008.2,773.057 1006.56,772.923 1004.62,772.815C994.862,772.266 970.909,771.247 967.586,770.914C931.463,767.302 931.611,769.456 895.147,769.456C894.236,769.456 893.497,768.716 893.497,767.806C893.497,766.895 894.236,766.156 895.147,766.156C931.776,766.156 931.627,764.002 967.915,767.631C971.642,768.003 1001.4,769.239 1007.75,769.703C1008.84,769.782 1009.46,769.95 1009.56,769.997C1010.37,770.404 1010.7,771.396 1010.3,772.21C1009.94,772.911 1009.16,773.254 1008.43,773.076Z"/>
        </g>
        <g transform="matrix(1.16779,0,0,1.11538,-200.951,-91.4519)">
            <path d="M979.144,707.883C979.835,707.291 980.878,707.371 981.47,708.062C982.063,708.754 981.983,709.796 981.291,710.389C967.998,721.784 968.042,721.836 967.022,722.346C963.224,724.245 961.101,724.303 958.982,724.358C957.23,724.405 955.481,724.449 952.354,726.013C951.54,726.42 950.548,726.089 950.14,725.275C949.733,724.46 950.064,723.468 950.878,723.061C954.661,721.17 956.776,721.116 958.895,721.06C960.648,721.013 962.404,720.965 965.546,719.394C966.522,718.906 966.422,718.788 979.144,707.883Z"/>
        </g>
        <g transform="matrix(1.16779,0,0,1.11538,-200.951,-91.4519)">
            <path d="M922.881,737.337C923.102,736.454 923.998,735.916 924.882,736.137C925.765,736.358 926.303,737.254 926.082,738.138C924.349,745.073 919.179,748.791 913.711,751.368C910.68,752.796 907.574,753.868 905.046,755.024C903.569,755.699 902.303,756.383 901.447,757.238C900.803,757.882 899.758,757.882 899.114,757.238C898.47,756.595 898.47,755.549 899.114,754.905C900.206,753.813 901.788,752.885 903.674,752.023C906.191,750.872 909.285,749.805 912.304,748.383C916.921,746.207 921.417,743.193 922.881,737.337Z"/>
        </g>
        <g transform="matrix(1.16779,0,0,1.11538,-200.951,-91.4519)">
            <path d="M799.076,729.854C798.165,729.854 797.426,729.114 797.426,728.204C797.426,727.293 798.165,726.554 799.076,726.554C863.291,726.554 863.178,725.848 880.751,728.776C895.616,731.254 895.771,728.859 910.214,732.47C911.098,732.691 911.636,733.587 911.415,734.471C911.194,735.354 910.298,735.892 909.414,735.671C895.098,732.092 894.942,734.487 880.208,732.031C862.752,729.122 862.864,729.854 799.076,729.854Z"/>
        </g>
        <g transform="matrix(1.16779,0,0,1.11538,-200.951,-91.4519)">
            <path d="M948.478,738.641C947.575,738.528 946.933,737.703 947.046,736.799C947.158,735.896 947.984,735.254 948.887,735.367C959.208,736.657 966.206,734.133 990.808,739.053C1005.4,741.972 1051.9,741.954 1057.22,741.954C1058.13,741.954 1058.87,742.694 1058.87,743.604C1058.87,744.515 1058.13,745.254 1057.22,745.254C1051.85,745.254 1004.9,745.237 990.161,742.289C965.699,737.397 958.74,739.924 948.478,738.641Z"/>
        </g>
        <g transform="matrix(1.16779,0,0,1.11538,-200.951,-91.4519)">
            <path d="M729.303,758.452C728.394,758.395 727.702,757.611 727.759,756.702C727.816,755.793 728.6,755.102 729.509,755.158C752.506,756.596 759.527,753.904 781.833,758.861C795.599,761.92 837.597,761.022 849.678,761.022C850.589,761.022 851.328,761.761 851.328,762.672C851.328,763.583 850.589,764.322 849.678,764.322C837.469,764.322 795.029,765.174 781.117,762.083C759.029,757.174 752.075,759.875 729.303,758.452Z"/>
        </g>
        <g transform="matrix(1.16779,0,0,1.11538,-200.951,-91.4519)">
            <path d="M731.306,746.971C730.662,747.615 729.616,747.615 728.972,746.971C728.328,746.327 728.328,745.282 728.972,744.638C734.734,738.876 746.504,736.449 748.15,736.12C748.594,736.031 748.824,735.917 749.701,735.462C751.379,734.593 754.89,732.684 763.869,728.195C764.684,727.787 765.676,728.118 766.083,728.933C766.49,729.747 766.16,730.739 765.345,731.146C750.043,738.797 750.246,739.066 748.797,739.355C747.3,739.655 736.544,741.733 731.306,746.971Z"/>
        </g>
        <g transform="matrix(1.16779,0,0,1.11538,-200.951,-91.4519)">
            <path d="M812.125,703.348C812.058,703.415 811.704,703.775 811.441,704.081C810.092,705.649 807.668,708.518 800.547,712.079C799.732,712.486 798.74,712.155 798.333,711.341C797.926,710.526 798.257,709.534 799.071,709.127C806.487,705.419 808.324,702.552 809.483,701.313C810.016,700.745 810.504,700.409 811.021,700.237C812.078,699.885 819.678,697.357 824.006,695.193C824.82,694.786 825.812,695.116 826.219,695.931C826.627,696.746 826.296,697.737 825.481,698.145C821.083,700.344 813.419,702.916 812.125,703.348Z"/>
        </g>
        <g transform="matrix(1.16779,0,0,1.11538,-200.951,-91.4519)">
            <path d="M1116.11,400.61C1115.25,400.898 1114.31,400.43 1114.03,399.566C1113.74,398.702 1114.2,397.767 1115.07,397.479C1120.8,395.569 1123,392.589 1125.89,389.604C1129.11,386.284 1133.04,382.898 1142.32,380.576C1143.21,380.355 1144.11,380.893 1144.33,381.777C1144.55,382.66 1144.01,383.557 1143.12,383.778C1133,386.309 1129.87,390.222 1126.49,393.772C1123.96,396.421 1121.3,398.882 1116.11,400.61Z"/>
        </g>
    </g>
</svg>
