<?xml version="1.0" encoding="UTF-8" standalone="no"?>
<!DOCTYPE svg PUBLIC "-//W3C//DTD SVG 1.1//EN" "http://www.w3.org/Graphics/SVG/1.1/DTD/svg11.dtd">
<svg width="100%" height="100%" viewBox="0 0 58 57" version="1.1" xmlns="http://www.w3.org/2000/svg" xmlns:xlink="http://www.w3.org/1999/xlink" xml:space="preserve" xmlns:serif="http://www.serif.com/" style="fill-rule:evenodd;clip-rule:evenodd;stroke-linecap:round;stroke-linejoin:round;stroke-miterlimit:1.5;">
    <g id="Artboard1" transform="matrix(0.628514,0,0,0.656051,-348.951,-210.344)">
        <g transform="matrix(-0.838453,1.29545,-1.3522,-0.80326,1600.67,-138.188)">
            <path d="M594.894,385.171C591.53,383.008 593.087,356.073 598.259,350.438C600.643,347.84 602.263,350.294 602.198,347.013C602.132,343.732 597.327,345.504 597.327,343.339C597.327,341.173 597.748,340.138 598.535,339.29C599.472,338.282 603.42,338.299 606.361,338.299C609.301,338.299 615.242,338.282 616.179,339.29C616.967,340.138 615.821,341.743 615.821,343.908C615.821,346.074 611.586,343.162 611.52,346.443C611.455,349.724 614.072,347.84 616.456,350.438C621.628,356.073 621.191,382.296 617.827,384.459C614.559,386.559 598.162,387.271 594.894,385.171Z" style="fill:none;stroke-width:0.93px;"/>
        </g>
        <g transform="matrix(-0.838453,1.29545,-1.3522,-0.80326,1597.67,-139.969)">
            <path d="M603.575,345.458C606.413,345.749 607.852,345.224 610.516,345.283" style="fill:none;stroke-width:0.93px;"/>
        </g>
        <g transform="matrix(-2.04681,3.16241,-2.60424,-1.54702,2753.84,-1012.62)">
            <path d="M602.369,339.605C602.593,339.605 602.821,339.757 602.775,339.927C602.724,340.112 602.593,340.25 602.369,340.25C602.144,340.25 601.953,340.105 601.962,339.927C601.969,339.796 601.984,339.605 602.369,339.605Z" style="fill:none;stroke-width:0.42px;"/>
        </g>
        <g transform="matrix(-0.838453,1.29545,-1.3522,-0.80326,1601.78,-141.593)">
            <path d="M606.903,339.444C607.491,339.444 607.871,339.612 607.871,339.999C607.871,340.386 607.49,340.814 606.903,340.847C606.47,340.872 605.855,340.655 605.838,340.146C605.832,339.946 606.315,339.444 606.903,339.444Z" style="fill:none;stroke-width:0.93px;"/>
        </g>
        <g transform="matrix(-0.838453,1.29545,-1.3522,-0.80326,1605.48,-142.586)">
            <path d="M611.741,340.4C612.222,340.452 612.668,340.755 612.616,341.05C612.564,341.345 612.274,341.634 611.741,341.634C611.209,341.634 610.826,341.436 610.826,341.095C610.826,340.755 611.212,340.342 611.741,340.4Z" style="fill:none;stroke-width:0.93px;"/>
        </g>
        <g transform="matrix(-0.838453,1.29545,-1.3522,-0.80326,1601.55,-138.773)">
            <path d="M611.728,340.296C612.294,340.356 612.577,340.761 612.577,341.102C612.577,341.443 612.274,341.634 611.741,341.634C611.209,341.634 610.776,341.358 610.776,341.017C610.776,340.676 611.335,340.253 611.728,340.296Z" style="fill:none;stroke-width:0.93px;"/>
        </g>
        <g transform="matrix(-0.838453,1.29545,-1.3522,-0.80326,1600.67,-138.188)">
            <path d="M603.05,345.283C604.914,345.474 606.25,345.263 607.801,345.195C608.612,345.159 609.481,345.162 610.516,345.283" style="fill:none;stroke-width:0.93px;"/>
        </g>
        <g transform="matrix(-0.838453,1.29545,-1.3522,-0.80326,1600.67,-138.188)">
            <path d="M603.05,351.973C601.214,356.895 598.479,370.745 601.214,381.776" style="fill:none;stroke-width:0.93px;"/>
        </g>
        <g transform="matrix(0.838453,-1.29545,-1.3522,-0.80326,581.989,1435.72)">
            <path d="M603.05,351.973C601.214,356.895 599.573,371.839 602.307,382.87" style="fill:none;stroke-width:0.93px;"/>
        </g>
        <g transform="matrix(-0.838453,1.29545,-1.3522,-0.80326,1596.29,-131.414)">
            <path d="M603.05,351.973C603.31,359.082 600.758,373.388 601.214,381.776" style="fill:none;stroke-width:0.93px;"/>
        </g>
        <g transform="matrix(2.56438,0,0,3.70191,-975.324,-1015.7)">
            <path d="M629.336,376.607C628.668,376.519 628.547,376.889 628.911,377.433C629.276,377.978 629.458,377.922 630.066,377.433C630.673,376.945 630.005,376.695 629.336,376.607Z" style="fill:none;stroke-width:0.45px;"/>
        </g>
        <g transform="matrix(1.61582,3.15336,-3.29152,1.548,855.896,-2167.11)">
            <path d="M629.336,376.607C629.089,376.691 628.658,376.829 628.911,377.433C628.994,377.63 629.458,377.922 630.066,377.433C630.673,376.945 629.975,376.392 629.336,376.607Z" style="fill:none;stroke-width:0.4px;"/>
        </g>
        <g transform="matrix(0.631229,2.38116,-3.7452,0.911232,1652.25,-1448.24)">
            <path d="M629.336,376.607C628.668,376.519 628.547,376.889 628.911,377.433C629.276,377.978 629.458,377.922 630.066,377.433C630.673,376.945 630.005,376.695 629.336,376.607Z" style="fill:none;stroke-width:0.45px;"/>
        </g>
        <g transform="matrix(-2.55379,0.223034,-0.350799,-3.68662,2379.65,1652.27)">
            <path d="M629.336,376.607C628.668,376.519 628.048,376.993 628.412,377.537C628.777,378.081 629.458,377.922 630.066,377.433C630.673,376.945 630.005,376.695 629.336,376.607Z" style="fill:none;stroke-width:0.45px;"/>
        </g>
        <g transform="matrix(4.48308,0,0,2.65503,-2172.25,-626.928)">
            <path d="M625.969,381.684C625.326,381.927 625.274,381.927 625.969,382.656C626.215,382.915 626.358,382.975 626.437,382.914C626.581,382.804 626.514,382.297 626.477,381.866C626.42,381.198 626.611,381.441 625.969,381.684Z" style="fill:none;stroke-width:0.4px;"/>
        </g>
        <g transform="matrix(4.12401,2.98134,-1.66931,2.11934,-1313.8,-2282.42)">
            <path d="M625.969,381.684C625.734,381.808 625.274,381.927 625.969,382.656C626.215,382.915 626.358,382.975 626.437,382.914C626.581,382.804 626.665,382.739 626.642,382.308C626.606,381.645 626.228,381.548 625.969,381.684Z" style="fill:none;stroke-width:0.36px;"/>
        </g>
    </g>
</svg>
