<?xml version="1.0" encoding="UTF-8" standalone="no"?>
<svg
   width="100%"
   height="100%"
   viewBox="0 0 809 426"
   version="1.1"
   xml:space="preserve"
   style="fill-rule:evenodd;clip-rule:evenodd;stroke-linecap:round;stroke-linejoin:round;stroke-miterlimit:10;"
   id="svg47"
   sodipodi:docname="UCL_CER_Logo.svg"
   inkscape:version="1.1.2 (0a00cf5339, 2022-02-04, custom)"
   xmlns:inkscape="http://www.inkscape.org/namespaces/inkscape"
   xmlns:sodipodi="http://sodipodi.sourceforge.net/DTD/sodipodi-0.dtd"
   xmlns="http://www.w3.org/2000/svg"
   xmlns:svg="http://www.w3.org/2000/svg"><defs
   id="defs51" /><sodipodi:namedview
   id="namedview49"
   pagecolor="#505050"
   bordercolor="#ffffff"
   borderopacity="1"
   inkscape:pageshadow="0"
   inkscape:pageopacity="0"
   inkscape:pagecheckerboard="1"
   showgrid="false"
   inkscape:zoom="1.3077874"
   inkscape:cx="404.11767"
   inkscape:cy="213.33743"
   inkscape:window-width="1920"
   inkscape:window-height="1009"
   inkscape:window-x="-8"
   inkscape:window-y="-8"
   inkscape:window-maximized="1"
   inkscape:current-layer="text8" />
    <g
   id="g45">
        <g
   aria-label="Research"
   id="text2"
   style="font-size:109.842px;font-family:TruenoRound, Trueno;fill:#ffa32a"><path
     d="m 318.59315,390.26999 h 5.27242 c 3.29526,0 5.05273,-3.29526 3.18541,-6.04131 l -10.54483,-15.70741 c -1.20826,-1.75747 -0.21968,-4.94289 1.64763,-6.04131 7.46926,-4.50352 11.64325,-12.41214 11.64325,-22.84713 0,-16.69599 -11.31372,-26.25224 -30.97544,-26.25224 h -27.35066 c -2.087,0 -3.84447,1.75747 -3.84447,3.84447 v 69.20046 c 0,2.087 1.75747,3.84447 3.84447,3.84447 h 5.27242 c 2.08699,0 3.84447,-1.75747 3.84447,-3.84447 V 370.9378 c 0,-2.087 1.75747,-3.84447 3.84447,-3.84447 h 14.3893 c 0.98858,0 2.087,0 3.07558,-0.10985 0.21968,0 0.54921,0.21969 0.76889,0.43937 l 12.63183,20.97982 c 0.54921,0.87874 2.19684,1.86732 3.29526,1.86732 z M 280.58782,351.6056 v -22.73729 c 0,-2.087 1.75747,-3.84447 3.84447,-3.84447 h 14.3893 c 11.86294,0 18.67314,4.83305 18.67314,14.93851 0,10.43499 -6.8102,15.48772 -18.67314,15.48772 h -14.3893 c -2.087,0 -3.84447,-1.75747 -3.84447,-3.84447 z"
     id="path98" /><path
     d="m 370.32868,331.39468 c -17.35503,0.10984 -29.5475,12.08262 -29.5475,29.76718 0,17.57472 11.86294,29.5475 29.87703,29.5475 8.56768,0 15.92709,-2.63621 21.41919,-7.24958 1.75747,-1.42794 1.86731,-3.62478 0.32953,-5.27241 l -2.19684,-2.30668 c -0.98858,-0.98858 -3.29526,-0.98858 -4.50353,-0.10985 -3.95431,3.07558 -8.78736,4.72321 -14.05977,4.72321 -7.5791,0 -13.62041,-3.84447 -16.69599,-10.21531 -1.20826,-2.6362 0.21969,-4.39368 3.18542,-4.39368 h 35.91834 c 2.08699,0 3.73462,-0.98857 3.73462,-3.07557 0.54921,-19.33219 -7.90862,-31.41481 -27.4605,-31.41481 z m -15.81725,20.65029 c 2.52637,-6.59052 8.348,-10.54483 15.9271,-10.54483 8.1283,0 13.84009,4.174 15.7074,11.20388 0.65905,2.52637 -0.87873,3.95432 -3.51494,3.95432 h -24.8243 c -2.96573,0 -4.39368,-1.86732 -3.29526,-4.61337 z"
     id="path100" /><path
     d="m 428.32519,331.28483 c -11.20388,0 -21.52903,5.05274 -21.52903,16.91567 -0.10984,21.08967 30.64592,14.3893 30.64592,26.36208 0,4.39368 -4.174,6.261 -9.55626,6.261 -5.38225,0 -12.08262,-1.97716 -17.13535,-5.38226 -1.3181,-0.87874 -3.18542,-0.32953 -3.95431,1.20826 l -1.64763,3.29526 c -0.7689,1.64763 -0.43937,3.4051 0.98858,4.50352 5.82162,4.06416 13.73025,6.261 21.1995,6.261 11.7531,0 22.40777,-5.38226 22.40777,-17.35504 0.10984,-21.19951 -30.97544,-15.37788 -30.97544,-26.1424 0,-4.17399 3.62478,-5.82162 8.56767,-5.82162 4.28384,0 9.44642,1.3181 13.94994,3.62478 1.42794,0.65906 3.51494,0.21969 4.17399,-1.20826 l 1.86732,-3.73463 c 0.87873,-1.75747 0.65905,-3.51494 -1.09842,-4.39368 -5.05273,-2.85589 -11.64325,-4.39368 -17.90425,-4.39368 z"
     id="path102" /><path
     d="m 486.54138,331.39468 c -17.35503,0.10984 -29.5475,12.08262 -29.5475,29.76718 0,17.57472 11.86294,29.5475 29.87703,29.5475 8.56768,0 15.92709,-2.63621 21.41919,-7.24958 1.75747,-1.42794 1.86731,-3.62478 0.32953,-5.27241 l -2.19684,-2.30668 c -0.98858,-0.98858 -3.29526,-0.98858 -4.50353,-0.10985 -3.95431,3.07558 -8.78736,4.72321 -14.05977,4.72321 -7.5791,0 -13.62041,-3.84447 -16.69599,-10.21531 -1.20826,-2.6362 0.21969,-4.39368 3.18542,-4.39368 h 35.91834 c 2.08699,0 3.73462,-0.98857 3.73462,-3.07557 0.54921,-19.33219 -7.90862,-31.41481 -27.4605,-31.41481 z m -15.81725,20.65029 c 2.52637,-6.59052 8.348,-10.54483 15.92709,-10.54483 8.12831,0 13.8401,4.174 15.70741,11.20388 0.65905,2.52637 -0.87873,3.95432 -3.51494,3.95432 h -24.8243 c -2.96573,0 -4.39368,-1.86732 -3.29526,-4.61337 z"
     id="path104" /><path
     d="m 565.73741,390.26999 h 4.94289 c 2.08699,0 3.84447,-1.75747 3.84447,-3.84447 l -0.10985,-34.49039 c -0.10984,-12.85151 -8.56767,-20.54045 -23.61603,-20.54045 -9.44641,0 -15.15819,1.86731 -21.63887,5.38225 -1.86732,0.98858 -2.63621,3.40511 -1.53779,5.27242 l 1.42795,2.41652 c 0.87873,1.53779 3.29526,2.087 4.83304,1.20827 4.72321,-2.74605 9.55626,-4.06416 14.16962,-4.06416 9.22673,0 13.94994,4.39368 13.94994,11.7531 v 0.87873 c 0,0.43937 -0.43937,0.87874 -0.87874,0.87874 h -16.80583 c -14.05977,0.10984 -22.07824,6.92004 -22.07824,17.57472 0,10.32515 7.90863,18.12393 20.54046,18.12393 7.02989,0 12.74167,-1.75747 16.91567,-5.27242 0.76889,-0.65905 2.41652,-0.10984 2.41652,0.87874 v 0.21968 c 0,1.97716 1.64763,3.62479 3.62479,3.62479 z m -20.32078,-9.44641 c -7.02988,0 -11.31372,-3.40511 -11.31372,-8.67752 0,-5.60194 3.84447,-7.79878 12.08262,-7.79878 h 13.18104 c 1.42795,0 2.63621,1.20826 2.63621,2.6362 v 2.52637 l -0.10984,0.65905 c -0.87874,6.15115 -7.68894,10.65468 -16.47631,10.65468 z"
     id="path106" /><path
     d="m 600.22784,331.83404 h -4.94289 c -2.087,0 -3.84447,1.75748 -3.84447,3.84447 v 50.74701 c 0,2.087 1.75747,3.84447 3.84447,3.84447 h 4.94289 c 2.087,0 3.84447,-1.75747 3.84447,-3.84447 V 359.9536 c 0.98858,-9.00705 6.48068,-15.37788 16.03694,-16.36646 1.86731,-0.21969 4.17399,-2.30668 4.17399,-4.174 v -4.17399 c 0,-2.41653 -1.64763,-3.95432 -3.95431,-3.51495 -5.82163,0.7689 -10.54483,3.51495 -13.94994,7.90863 -0.54921,0.87873 -2.30668,0.43936 -2.30668,-0.54921 v -3.40511 c 0,-2.08699 -1.75747,-3.84447 -3.84447,-3.84447 z"
     id="path108" /><path
     d="m 658.66369,331.39468 c -17.35504,0 -29.43766,12.08262 -29.43766,29.76718 0,17.57472 12.08262,29.5475 29.43766,29.5475 9.66609,0 17.35503,-3.07558 22.73729,-8.45784 1.42795,-1.42794 1.20826,-3.29526 -0.32952,-4.83305 l -2.41653,-2.41652 c -1.09842,-1.09842 -3.4051,-0.87874 -4.50352,0 -3.73463,3.18542 -8.8972,4.83305 -14.93851,4.83305 -10.10547,0 -17.35504,-7.5791 -17.35504,-18.67314 0,-11.09404 7.24957,-18.67314 17.35504,-18.67314 5.82162,-0.10984 10.65467,1.64763 14.3893,4.50352 1.09842,0.87874 3.29526,0.87874 4.174,-0.10984 l 2.85589,-3.4051 c 1.42794,-1.53779 1.53779,-3.29526 0,-4.72321 -5.27242,-4.72321 -12.74167,-7.35941 -21.9684,-7.35941 z"
     id="path110" /><path
     d="m 731.48882,331.39468 c -8.23815,0 -14.71883,2.41652 -19.11251,7.90862 -0.65905,0.87874 -2.52636,0.43937 -2.52636,-0.65905 v -26.03256 c 0,-2.087 -1.75748,-3.84447 -3.84447,-3.84447 h -4.94289 c -2.087,0 -3.84447,1.75747 -3.84447,3.84447 v 73.81383 c 0,2.087 1.75747,3.84447 3.84447,3.84447 h 4.94289 c 2.08699,0 3.84447,-1.75747 3.84447,-3.84447 v -24.93414 c 0,-10.32514 6.26099,-18.12393 16.69598,-18.23377 8.78736,0 14.05978,5.38226 14.05978,14.16962 v 28.99829 c 0,2.087 1.75747,3.84447 3.84447,3.84447 h 4.94289 c 2.087,0 3.84447,-1.75747 3.84447,-3.84447 v -32.51323 c 0,-13.94994 -8.12831,-22.51761 -21.74872,-22.51761 z"
     id="path112" /></g>
        <g
   aria-label="Education"
   id="text4"
   style="font-size:109.842px;font-family:TruenoRound, Trueno;fill:#00909e"><path
     d="m 290.72147,226.63137 v -3.95432 c 0,-2.087 -1.75747,-3.84447 -3.84447,-3.84447 h -47.23206 c -2.087,0 -3.84447,1.75747 -3.84447,3.84447 v 69.20046 c 0,2.087 1.75747,3.84447 3.84447,3.84447 h 48.55017 c 2.087,0 3.84447,-1.75747 3.84447,-3.84447 v -3.95431 c 0,-2.087 -1.75747,-3.84447 -3.84447,-3.84447 H 252.6063 c -2.087,0 -3.84447,-1.75747 -3.84447,-3.84447 V 266.7237 c 0,-2.087 1.75747,-3.84447 3.84447,-3.84447 h 29.87702 c 2.087,0 3.84447,-1.75748 3.84447,-3.84447 v -3.95432 c 0,-2.08699 -1.75747,-3.84447 -3.84447,-3.84447 H 252.6063 c -2.087,0 -3.84447,-1.75747 -3.84447,-3.84447 v -13.07119 c 0,-2.087 1.75747,-3.84447 3.84447,-3.84447 h 34.2707 c 2.087,0 3.84447,-1.75748 3.84447,-3.84447 z"
     id="path79" /><path
     d="m 358.93337,214.21922 h -4.94289 c -2.087,0 -3.84447,1.75747 -3.84447,3.84447 v 25.26366 c 0,1.20826 -1.75747,1.53779 -2.52637,0.76889 -4.28384,-4.7232 -10.43499,-7.35941 -18.23377,-7.35941 -16.4763,0 -27.79003,11.97278 -27.79003,29.5475 0,17.7944 11.20389,29.98686 28.00971,29.98686 7.68894,0 13.8401,-2.52636 18.12393,-7.24957 0.65906,-0.76889 2.41653,-0.43937 2.41653,0.65905 v 2.19684 c 0,2.087 1.75747,3.84447 3.84447,3.84447 h 4.94289 c 2.087,0 3.84447,-1.75747 3.84447,-3.84447 v -73.81382 c 0,-2.087 -1.75747,-3.84447 -3.84447,-3.84447 z m -26.69161,71.50714 c -10.65467,0 -17.90424,-7.90862 -18.01409,-19.00266 0.10985,-11.20389 7.46926,-19.22235 18.01409,-19.22235 10.54483,0 17.90425,7.90862 17.90425,19.22235 0,11.09404 -7.35942,19.00266 -17.90425,19.00266 z"
     id="path81" /><path
     d="m 431.20932,237.28604 h -4.94289 c -2.087,0 -3.84447,1.75747 -3.84447,3.84447 v 24.93413 c 0,10.21531 -5.93147,18.01409 -16.03694,18.23378 -8.45783,0 -13.62041,-5.38226 -13.62041,-14.16962 v -28.99829 c 0,-2.087 -1.75747,-3.84447 -3.84447,-3.84447 h -4.94289 c -2.08699,0 -3.84447,1.75747 -3.84447,3.84447 v 32.51323 c 0,13.94994 8.01847,22.51761 21.4192,22.51761 7.90862,-0.10984 14.27946,-2.52636 18.45345,-8.01846 0.65905,-0.7689 2.41653,-0.32953 2.41653,0.65905 v 3.07557 c 0,2.087 1.75747,3.84447 3.84447,3.84447 h 4.94289 c 2.08699,0 3.84447,-1.75747 3.84447,-3.84447 v -50.747 c 0,-2.087 -1.75748,-3.84447 -3.84447,-3.84447 z"
     id="path83" /><path
     d="m 477.67248,236.84667 c -17.35504,0 -29.43766,12.08262 -29.43766,29.76718 0,17.57472 12.08262,29.5475 29.43766,29.5475 9.66609,0 17.35503,-3.07557 22.73729,-8.45783 1.42795,-1.42795 1.20826,-3.29526 -0.32952,-4.83305 l -2.41653,-2.41652 c -1.09842,-1.09842 -3.4051,-0.87874 -4.50352,0 -3.73463,3.18541 -8.8972,4.83304 -14.93851,4.83304 -10.10547,0 -17.35504,-7.57909 -17.35504,-18.67314 0,-11.09404 7.24957,-18.67314 17.35504,-18.67314 5.82162,-0.10984 10.65467,1.64763 14.3893,4.50353 1.09842,0.87873 3.29526,0.87873 4.174,-0.10985 l 2.85589,-3.4051 c 1.42794,-1.53779 1.53779,-3.29526 0,-4.7232 -5.27242,-4.72321 -12.74167,-7.35942 -21.9684,-7.35942 z"
     id="path85" /><path
     d="m 554.34208,295.72198 h 4.94289 c 2.087,0 3.84447,-1.75747 3.84447,-3.84447 l -0.10984,-34.49038 c -0.10984,-12.85152 -8.56768,-20.54046 -23.61603,-20.54046 -9.44641,0 -15.1582,1.86732 -21.63888,5.38226 -1.86731,0.98858 -2.6362,3.4051 -1.53778,5.27242 l 1.42794,2.41652 c 0.87874,1.53779 3.29526,2.087 4.83305,1.20826 4.72321,-2.74605 9.55625,-4.06415 14.16962,-4.06415 9.22673,0 13.94993,4.39368 13.94993,11.75309 v 0.87874 c 0,0.43937 -0.43937,0.87873 -0.87873,0.87873 h -16.80583 c -14.05978,0.10985 -22.07824,6.92005 -22.07824,17.57472 0,10.32515 7.90862,18.12393 20.54045,18.12393 7.02989,0 12.74167,-1.75747 16.91567,-5.27241 0.76889,-0.65905 2.41652,-0.10984 2.41652,0.87873 v 0.21969 c 0,1.97715 1.64763,3.62478 3.62479,3.62478 z m -20.32077,-9.44641 c -7.02989,0 -11.31373,-3.4051 -11.31373,-8.67752 0,-5.60194 3.84447,-7.79878 12.08262,-7.79878 h 13.18104 c 1.42795,0 2.63621,1.20826 2.63621,2.63621 v 2.52637 l -0.10984,0.65905 c -0.87874,6.15115 -7.68894,10.65467 -16.4763,10.65467 z"
     id="path87" /><path
     d="m 608.27458,283.09015 c -2.6362,1.09842 -4.94289,1.75748 -7.13973,1.75748 -3.95431,0 -6.26099,-1.86732 -6.26099,-7.90863 v -24.16524 c 0,-2.087 1.75747,-3.84447 3.84447,-3.84447 h 9.55625 c 2.087,0 3.84447,-1.75747 3.84447,-3.84447 v -1.75747 c 0,-2.087 -1.75747,-3.84447 -3.84447,-3.84447 h -9.55625 c -2.087,0 -3.84447,-1.75747 -3.84447,-3.84447 v -8.34799 c 0,-2.087 -1.75747,-3.84447 -3.84447,-3.84447 h -4.83305 c -2.087,0 -3.84447,1.75747 -3.84447,3.84447 v 8.34799 c 0,2.087 -1.75747,3.84447 -3.84447,3.84447 h -0.54921 c -2.087,0 -3.84447,1.75747 -3.84447,3.84447 v 1.75747 c 0,2.087 1.75747,3.84447 3.84447,3.84447 h 0.54921 c 2.087,0 3.84447,1.75747 3.84447,3.84447 v 26.47192 c 0,11.97278 7.5791,17.02551 16.36646,17.02551 4.06415,0 8.12831,-1.09842 11.97278,-2.96573 1.42794,-0.65905 2.087,-2.30668 1.53779,-3.84447 l -1.75748,-5.38226 c -0.21968,-0.87873 -1.20826,-1.42794 -2.19684,-0.98858 z"
     id="path89" /><path
     d="m 631.01181,212.90111 c -4.174,0 -7.35941,3.18542 -7.35941,7.68894 0,4.39369 3.18541,7.5791 7.35941,7.5791 4.174,0 7.35941,-3.18541 7.35941,-7.5791 0,-4.50352 -3.18541,-7.68894 -7.35941,-7.68894 z m 6.26099,78.9764 v -50.747 c 0,-2.087 -1.75747,-3.84447 -3.84447,-3.84447 h -4.83304 c -2.087,0 -3.84447,1.75747 -3.84447,3.84447 v 50.747 c 0,2.087 1.75747,3.84447 3.84447,3.84447 h 4.83304 c 2.087,0 3.84447,-1.75747 3.84447,-3.84447 z"
     id="path91" /><path
     d="m 680.98998,236.84667 c -18.12393,0 -30.53607,11.97278 -30.53607,29.65734 0,17.57472 12.41214,29.65734 30.53607,29.65734 18.01409,0 30.42624,-12.08262 30.42624,-29.65734 0,-17.68456 -12.41215,-29.65734 -30.42624,-29.65734 z m 0,10.87436 c 10.43499,0 17.79441,7.68894 17.79441,18.89282 0,11.31373 -7.35942,19.00267 -17.79441,19.00267 -10.54483,0 -17.90424,-7.68894 -17.90424,-19.00267 0,-11.20388 7.35941,-18.89282 17.90424,-18.89282 z"
     id="path93" /><path
     d="m 753.81522,248.70961 c 8.78736,0 14.05978,5.38226 14.05978,14.16962 v 28.99828 c 0,2.087 1.75747,3.84447 3.84447,3.84447 h 4.94289 c 2.087,0 3.84447,-1.75747 3.84447,-3.84447 v -32.51323 c 0,-13.94993 -8.12831,-22.51761 -21.74872,-22.51761 -8.1283,0 -14.71882,2.41653 -19.00266,7.79878 -0.7689,0.87874 -2.52637,0.32953 -2.52637,-0.76889 v -2.74605 c 0,-2.087 -1.75747,-3.84447 -3.84447,-3.84447 h -4.94289 c -2.087,0 -3.84447,1.75747 -3.84447,3.84447 v 50.747 c 0,2.087 1.75747,3.84447 3.84447,3.84447 h 4.94289 c 2.087,0 3.84447,-1.75747 3.84447,-3.84447 v -27.02113 c 1.20826,-9.33657 6.59052,-16.03693 16.58614,-16.14677 z"
     id="path95" /></g>
        <g
   aria-label="Chemistry"
   id="text6"
   style="font-size:109.842px;font-family:TruenoRound, Trueno;fill:#ff477e"><path
     d="m 230.27248,120.64507 c -22.73729,0 -40.42185,16.80583 -40.42185,38.66439 0,22.07824 17.46487,39.10375 39.98248,39.10375 9.77594,0 19.77156,-3.95431 27.35066,-10.43499 1.64763,-1.42795 1.42795,-3.29526 0,-4.94289 l -2.6362,-2.85589 c -1.31811,-1.42795 -4.28384,-1.42795 -5.82163,-0.21969 -5.38226,3.95431 -11.86294,6.37084 -18.23377,6.37084 -15.37788,0 -27.4605,-11.97278 -27.4605,-27.13098 0,-15.15819 12.08262,-27.02113 27.4605,-27.02113 6.48067,0 13.07119,2.52637 18.23377,6.8102 1.53779,1.20827 4.50352,1.31811 5.71178,-0.21968 l 2.8559,-3.51494 c 1.3181,-1.64763 1.42794,-3.51495 -0.10985,-4.83305 -7.35941,-6.15115 -17.13535,-9.77594 -26.91129,-9.77594 z"
     id="path60" /><path
     d="m 306.83241,138.98868 c -8.23815,0 -14.71883,2.41653 -19.11251,7.90863 -0.65905,0.87874 -2.52636,0.43937 -2.52636,-0.65905 V 120.2057 c 0,-2.087 -1.75748,-3.84447 -3.84447,-3.84447 h -4.94289 c -2.087,0 -3.84447,1.75747 -3.84447,3.84447 v 73.81383 c 0,2.087 1.75747,3.84447 3.84447,3.84447 h 4.94289 c 2.08699,0 3.84447,-1.75747 3.84447,-3.84447 v -24.93414 c 0,-10.32514 6.26099,-18.12393 16.69598,-18.23377 8.78736,0 14.05978,5.38226 14.05978,14.16962 v 28.99829 c 0,2.087 1.75747,3.84447 3.84447,3.84447 h 4.94289 c 2.087,0 3.84447,-1.75747 3.84447,-3.84447 V 161.5063 c 0,-13.94994 -8.12831,-22.51762 -21.74872,-22.51762 z"
     id="path62" /><path
     d="m 369.55226,138.98868 c -17.35503,0.10985 -29.5475,12.08263 -29.5475,29.76719 0,17.57472 11.86294,29.5475 29.87703,29.5475 8.56767,0 15.92709,-2.63621 21.41919,-7.24958 1.75747,-1.42794 1.86731,-3.62478 0.32953,-5.27241 l -2.19685,-2.30668 c -0.98857,-0.98858 -3.29526,-0.98858 -4.50352,-0.10985 -3.95431,3.07558 -8.78736,4.72321 -14.05977,4.72321 -7.5791,0 -13.62041,-3.84447 -16.69599,-10.21531 -1.20826,-2.6362 0.21969,-4.39368 3.18542,-4.39368 h 35.91834 c 2.08699,0 3.73462,-0.98857 3.73462,-3.07557 0.54921,-19.33219 -7.90862,-31.41482 -27.4605,-31.41482 z m -15.81725,20.6503 c 2.52637,-6.59052 8.348,-10.54483 15.92709,-10.54483 8.12831,0 13.8401,4.174 15.70741,11.20388 0.65905,2.52637 -0.87874,3.95432 -3.51494,3.95432 h -24.8243 c -2.96573,0 -4.39368,-1.86732 -3.29526,-4.61337 z"
     id="path64" /><path
     d="m 486.31423,138.98868 c -9.00704,0 -16.03693,3.07558 -20.21092,9.99563 -0.65906,1.20826 -3.18542,0.87873 -3.84447,-0.21969 -3.51495,-6.26099 -9.88578,-9.77594 -18.45346,-9.77594 -8.01847,0 -14.49914,2.41653 -18.78298,7.90863 -0.65905,0.76889 -2.41653,0.32953 -2.41653,-0.76889 v -2.8559 c 0,-2.087 -1.75747,-3.84447 -3.84447,-3.84447 h -4.83305 c -2.08699,0 -3.84447,1.75747 -3.84447,3.84447 v 50.74701 c 0,2.087 1.75748,3.84447 3.84447,3.84447 h 4.83305 c 2.087,0 3.84447,-1.75747 3.84447,-3.84447 v -25.04398 c 0,-10.2153 6.15116,-17.90424 16.25662,-18.23377 8.56768,0 13.73025,5.38226 13.73025,14.27946 v 28.99829 c 0,2.087 1.75747,3.84447 3.84447,3.84447 h 4.94289 c 2.087,0 3.84447,-1.75747 3.84447,-3.84447 v -25.04398 c 0,-10.2153 6.04131,-17.90424 16.03693,-18.23377 8.56768,0 13.84009,5.38226 13.84009,14.27946 v 28.99829 c 0,2.087 1.75748,3.84447 3.84448,3.84447 h 4.94289 c 2.08699,0 3.84447,-1.75747 3.84447,-3.84447 V 161.5063 c 0,-13.94994 -8.01847,-22.51762 -21.4192,-22.51762 z"
     id="path66" /><path
     d="m 530.91003,115.04313 c -4.17399,0 -7.35941,3.18542 -7.35941,7.68894 0,4.39368 3.18542,7.5791 7.35941,7.5791 4.174,0 7.35942,-3.18542 7.35942,-7.5791 0,-4.50352 -3.18542,-7.68894 -7.35942,-7.68894 z m 6.261,78.9764 v -50.74701 c 0,-2.087 -1.75747,-3.84447 -3.84447,-3.84447 h -4.83305 c -2.087,0 -3.84447,1.75747 -3.84447,3.84447 v 50.74701 c 0,2.087 1.75747,3.84447 3.84447,3.84447 h 4.83305 c 2.087,0 3.84447,-1.75747 3.84447,-3.84447 z"
     id="path68" /><path
     d="m 573.30908,138.87884 c -11.20389,0 -21.52903,5.05274 -21.52903,16.91567 -0.10985,21.08967 30.64591,14.3893 30.64591,26.36208 0,4.39368 -4.17399,6.261 -9.55625,6.261 -5.38226,0 -12.08262,-1.97716 -17.13535,-5.38226 -1.31811,-0.87874 -3.18542,-0.32953 -3.95431,1.20826 l -1.64763,3.29526 c -0.7689,1.64763 -0.43937,3.4051 0.98857,4.50352 5.82163,4.06416 13.73025,6.261 21.19951,6.261 11.75309,0 22.40777,-5.38226 22.40777,-17.35504 0.10984,-21.19951 -30.97545,-15.37788 -30.97545,-26.1424 0,-4.17399 3.62479,-5.82162 8.56768,-5.82162 4.28384,0 9.44641,1.3181 13.94993,3.62478 1.42795,0.65906 3.51495,0.21969 4.174,-1.20826 l 1.86731,-3.73463 c 0.87874,-1.75747 0.65906,-3.51494 -1.09842,-4.39368 -5.05273,-2.85589 -11.64325,-4.39368 -17.90424,-4.39368 z"
     id="path70" /><path
     d="m 635.69927,185.23217 c -2.63621,1.09842 -4.94289,1.75747 -7.13973,1.75747 -3.95432,0 -6.261,-1.86731 -6.261,-7.90862 v -24.16524 c 0,-2.087 1.75747,-3.84447 3.84447,-3.84447 h 9.55626 c 2.08699,0 3.84447,-1.75748 3.84447,-3.84447 v -1.75748 c 0,-2.087 -1.75748,-3.84447 -3.84447,-3.84447 h -9.55626 c -2.087,0 -3.84447,-1.75747 -3.84447,-3.84447 v -8.34799 c 0,-2.087 -1.75747,-3.84447 -3.84447,-3.84447 h -4.83305 c -2.08699,0 -3.84447,1.75747 -3.84447,3.84447 v 8.34799 c 0,2.087 -1.75747,3.84447 -3.84447,3.84447 h -0.54921 c -2.087,0 -3.84447,1.75747 -3.84447,3.84447 v 1.75748 c 0,2.08699 1.75747,3.84447 3.84447,3.84447 h 0.54921 c 2.087,0 3.84447,1.75747 3.84447,3.84447 v 26.47192 c 0,11.97278 7.5791,17.02551 16.36646,17.02551 4.06416,0 8.12831,-1.09842 11.97278,-2.96574 1.42795,-0.65905 2.087,-2.30668 1.53779,-3.84447 l -1.75747,-5.38225 c -0.21969,-0.87874 -1.20827,-1.42795 -2.19684,-0.98858 z"
     id="path72" /><path
     d="M 660.96289,139.42805 H 656.02 c -2.087,0 -3.84447,1.75747 -3.84447,3.84447 v 50.74701 c 0,2.087 1.75747,3.84447 3.84447,3.84447 h 4.94289 c 2.087,0 3.84447,-1.75747 3.84447,-3.84447 v -26.47192 c 0.98858,-9.00705 6.48068,-15.37788 16.03693,-16.36646 1.86732,-0.21969 4.174,-2.30668 4.174,-4.174 v -4.174 c 0,-2.41652 -1.64763,-3.95431 -3.95431,-3.51494 -5.82163,0.76889 -10.54484,3.51494 -13.94994,7.90863 -0.54921,0.87873 -2.30668,0.43936 -2.30668,-0.54921 v -3.40511 c 0,-2.087 -1.75747,-3.84447 -3.84447,-3.84447 z"
     id="path74" /><path
     d="m 739.28014,139.42805 h -4.28384 c -1.31811,0 -3.07558,1.20826 -3.51495,2.52637 l -11.86293,32.29355 c -1.31811,3.4051 -5.82163,3.51494 -7.24957,0.10984 l -12.74168,-32.51323 c -0.54921,-1.20827 -2.30668,-2.41653 -3.62478,-2.41653 h -4.61337 c -2.96573,0 -4.7232,2.63621 -3.62478,5.38226 l 21.30935,50.63716 c 0.21968,0.65906 0.21968,2.41653 0,3.07558 l -1.31811,2.85589 c -1.97715,4.39368 -5.05273,6.48068 -8.8972,6.48068 -2.19684,0 -4.06415,-0.54921 -6.15115,-1.86731 -0.7689,-0.43937 -1.86732,-0.21969 -2.19684,0.43936 l -3.29526,6.04131 c -0.87874,1.42795 -0.54921,3.07558 0.87873,3.95432 3.40511,2.19684 6.92005,3.29526 11.31373,3.29526 8.78736,0 15.37788,-4.61337 19.00267,-13.8401 l 24.49476,-61.18199 c 1.09842,-2.74605 -0.65905,-5.27242 -3.62478,-5.27242 z"
     id="path76" /></g>
        <g
   aria-label="UCL"
   id="text8"
   style="font-size:109.842px;font-family:TruenoRound, Trueno;fill:#ffffff"><path
     d="m 425.46498,23.200594 h -5.27242 c -2.087,0 -3.84447,1.757472 -3.84447,3.84447 v 41.190752 c 0,13.071198 -7.79878,20.760138 -20.32077,20.760138 -12.63183,0 -20.6503,-7.798782 -20.6503,-20.760138 V 27.045064 c 0,-2.086998 -1.75747,-3.84447 -3.84447,-3.84447 h -5.27241 c -2.087,0 -3.84447,1.757472 -3.84447,3.84447 v 41.190752 c 0,20.101086 12.74167,32.403394 33.50181,32.403394 20.76014,0 33.39197,-12.302308 33.39197,-32.403394 V 27.045064 c 0,-2.086998 -1.75747,-3.84447 -3.84447,-3.84447 z"
     id="path53" /><path
     d="m 481.92376,22.871068 c -22.7373,0 -40.42186,16.805827 -40.42186,38.664385 0,22.078243 17.46488,39.103757 39.98249,39.103757 9.77594,0 19.77156,-3.954316 27.35066,-10.434994 1.64763,-1.427946 1.42794,-3.29526 0,-4.94289 l -2.63621,-2.855892 c -1.3181,-1.427946 -4.28384,-1.427946 -5.82163,-0.219684 -5.38225,3.954312 -11.86293,6.370836 -18.23377,6.370836 -15.37788,0 -27.4605,-11.972778 -27.4605,-27.130975 0,-15.158196 12.08262,-27.021132 27.4605,-27.021132 6.48068,0 13.0712,2.526366 18.23377,6.810204 1.53779,1.208262 4.50353,1.318104 5.71179,-0.219684 l 2.85589,-3.514944 c 1.3181,-1.64763 1.42795,-3.514944 -0.10984,-4.833048 -7.35942,-6.151153 -17.13535,-9.775939 -26.91129,-9.775939 z"
     id="path55" /><path
     d="M 537.39403,84.492432 V 27.045064 c 0,-2.086998 -1.75747,-3.84447 -3.84447,-3.84447 h -5.27242 c -2.08699,0 -3.84447,1.757472 -3.84447,3.84447 v 69.200462 c 0,2.086998 1.75748,3.844474 3.84447,3.844474 h 38.55455 c 2.08699,0 3.84447,-1.757476 3.84447,-3.844474 v -4.064154 c 0,-2.086998 -1.75748,-3.84447 -3.84447,-3.84447 H 541.2385 c -2.087,0 -3.84447,-1.757472 -3.84447,-3.84447 z"
     id="path57" /></g>
        <g
   id="g39">
            <clipPath
   id="_clip1">
                <path
   d="M106.777,29.698C115.218,29.698 111.646,76.368 111.646,114.223C111.646,149.941 108.257,165.064 101.058,183.79C98.252,191.088 94.867,198.934 90.879,208.759C88.506,214.606 85.919,221.154 83.114,228.706C66.013,274.728 -2.118,388.534 43.923,388.534L220.097,388.534C266.138,388.534 198.007,274.728 180.907,228.706C161.288,175.907 152.374,172.146 152.374,114.223C152.374,76.368 148.802,29.698 157.243,29.698C174.6,29.698 89.421,29.698 106.777,29.698Z"
   id="path10" />
            </clipPath>
            <g
   clip-path="url(#_clip1)"
   id="g37">
                <g
   transform="matrix(1,0,0,1,0,-58.346)"
   id="g15">
                    <path
   d="M80.047,311.294L184.644,311.294L131.897,173.052L80.047,311.294Z"
   style="fill:rgb(255,71,126);"
   id="path13" />
                </g>
                <g
   transform="matrix(1,0,0,1,0,112.262)"
   id="g19">
                    <rect
   x="-19.882"
   y="115.9"
   width="296.922"
   height="81.938"
   style="fill:rgb(0,144,158);"
   id="rect17" />
                </g>
                <g
   transform="matrix(1,0,0,1,0,277.423)"
   id="g23">
                    <rect
   x="-19.882"
   y="32.677"
   width="296.922"
   height="83.223"
   style="fill:rgb(255,163,42);"
   id="rect21" />
                </g>
                <g
   transform="matrix(-1,0,0,1,184.113,201.528)"
   id="g27">
                    <ellipse
   cx="92.057"
   cy="112.236"
   rx="9.145"
   ry="9.145"
   style="fill:white;stroke:rgb(7,7,7);stroke-width:6.78px;"
   id="ellipse25" />
                </g>
                <g
   transform="matrix(-1,0,0,1,331.646,149.692)"
   id="g31">
                    <circle
   cx="165.823"
   cy="138.154"
   r="16.773"
   style="fill:white;stroke:rgb(7,7,7);stroke-width:6.78px;"
   id="circle29" />
                </g>
                <g
   transform="matrix(-1,0,0,1,243.256,62.616)"
   id="g35">
                    <circle
   cx="121.628"
   cy="181.692"
   r="20.426"
   style="fill:white;stroke:rgb(7,7,7);stroke-width:6.78px;"
   id="circle33" />
                </g>
            </g>
        </g>
        <g
   transform="matrix(1,0,0,1,0,-7.7682)"
   id="g43">
            <path
   d="M106.777,37.466C115.218,37.466 111.646,84.136 111.646,121.991C111.646,157.709 108.257,172.832 101.058,191.558C98.252,198.856 94.867,206.702 90.879,216.527C88.506,222.374 85.919,228.922 83.114,236.474C66.013,282.496 -2.118,396.302 43.923,396.302L220.097,396.302C266.138,396.302 198.007,282.496 180.907,236.474C161.288,183.675 152.374,179.914 152.374,121.991C152.374,84.136 148.802,37.466 157.243,37.466C174.6,37.466 89.421,37.466 106.777,37.466Z"
   style="fill:none;fill-rule:nonzero;stroke:white;stroke-width:10.63px;"
   id="path41" />
        </g>
    </g>
</svg>
